<svg xmlns="http://www.w3.org/2000/svg" viewBox="0 0 22 28"><g fill="#E1A610" stroke="#000" stroke-width="1.909" transform="translate(1 1)"><path d="M10.9241995,0.128462919 C12.4662359,-0.282803626 14.1028359,0.314459283 15.0219995,1.61869928 L15.2084541,1.90829565 L15.622345,2.62916837 L16.4016359,2.91255383 C18.0342904,3.50668837 19.0440722,5.11593746 18.8998722,6.81898656 L18.8551995,7.16077746 L18.7109995,7.97735928 L19.1248904,8.69575019 L19.2851268,9.00151019 C20.0061268,10.5522138 19.6073813,12.4107775 18.2734359,13.5293775 L17.6396177,14.0626502 L17.4966904,14.8754138 C17.1751995,16.7027956 15.5928177,18.0310138 13.7369268,18.0311411 L12.909145,18.0311411 L12.3199995,18.5245775 L12.3163086,18.5295411 L12.2727813,18.5655593 C11.5632359,19.1596684 10.6917995,19.4579956 9.82049042,19.4579956 C8.94905406,19.4579956 8.07671406,19.1597956 7.36704133,18.5655593 L7.36579406,18.5644138 L6.73191224,18.0311411 L5.90414315,18.0311411 C4.04797224,18.0311411 2.46480133,16.7030502 2.14313224,14.8754138 L1.99895769,14.0613775 L1.36632315,13.5306502 C-0.0569041263,12.3373411 -0.415864126,10.300672 0.514944965,8.69326837 L0.927588601,7.97735928 L0.783401328,7.16077746 C0.463323146,5.33534292 1.49544133,3.54656292 3.23813587,2.91255383 L4.01494496,2.62916837 L4.43007042,1.91202474 C5.35801587,0.304570192 7.29854315,-0.403838717 9.04374496,0.232864738 L9.81921769,0.516250192 L10.5960904,0.232864738 L10.9241995,0.128462919 Z"/><path d="M16.1832359,22.9095047 C16.1832359,23.8483956 15.6659995,24.7099047 14.8396177,25.1529411 C14.4622541,25.3553047 14.0479813,25.4549593 13.6377813,25.4549593 C13.1452359,25.4549593 12.6525631,25.312032 12.2258177,25.0274502 L9.81959951,23.4216502 L7.41333042,25.0274502 L7.40960133,25.0298684 C6.63234678,25.5441775 5.62950133,25.5978866 4.79951769,25.1529411 C3.97325042,24.7099047 3.45595042,23.8485229 3.45595042,22.9095047 L3.45595042,17.5402502 L5.02200315,17.9118866 C5.34427042,17.9882502 5.63039224,18.0298684 5.90446133,18.0298684 L6.73098315,18.0298684 L7.0852086,18.3281956 L7.36734678,18.5644138 L7.36609951,18.5655593 C8.05349951,19.1409593 8.92601769,19.4567229 9.81959951,19.4567229 C10.7127995,19.4567229 11.5858904,19.139432 12.2755813,18.5618684 L12.5526541,18.3281956 L12.9081268,18.0298684 L13.7359086,18.0298684 C14.0096722,18.0298684 14.295145,17.9881229 14.617145,17.9118866 L16.1832359,17.5402502 L16.1832359,22.9095047 Z"/></g></svg>
