<svg xmlns="http://www.w3.org/2000/svg" viewBox="0 0 12 14"><path d="M11.375,9.855 C11.1492667,10.5391263 10.8248441,11.1866238 10.412,11.777 C10.0286667,12.319 9.717,12.694 9.477,12.902 C9.10366667,13.2453333 8.70266667,13.421 8.274,13.429 C7.96533333,13.429 7.595,13.341 7.163,13.165 C6.78529156,13.0012842 6.379542,12.9119853 5.968,12.902 C5.58733333,12.902 5.178,12.9896667 4.74,13.165 C4.3,13.341 3.94533333,13.4336667 3.676,13.443 C3.26466667,13.461 2.85466667,13.2806667 2.446,12.902 C2.186,12.6753333 1.86,12.287 1.468,11.737 C1.02646303,11.1079255 0.677880823,10.4185074 0.433,9.69 C0.154911501,8.90788763 0.00858915949,8.08503566 -4.4408921e-16,7.255 C-4.4408921e-16,6.35366667 0.195666667,5.577 0.587,4.925 C0.888,4.413 1.314,3.985 1.825,3.682 C2.32609329,3.38420824 2.89712383,3.22445771 3.48,3.219 C3.808,3.22033333 4.23733333,3.32 4.768,3.518 C5.298,3.71666667 5.63733333,3.81633333 5.786,3.817 C5.9,3.817 6.27766667,3.69933333 6.919,3.464 C7.52566667,3.248 8.03833333,3.15733333 8.457,3.192 C9.59366667,3.284 10.4463333,3.73133333 11.015,4.534 C9.99833333,5.14733333 9.49533333,6.00466667 9.506,7.106 C9.515,7.963 9.827,8.679 10.441,9.246 C10.7203333,9.50733333 11.032,9.71033333 11.376,9.855 M8.519,0 C8.52766667,0.09 8.53233333,0.179666667 8.533,0.269 C8.533,0.941 8.28666667,1.56833333 7.794,2.151 C7.201,2.841 6.482,3.241 5.703,3.177 C5.69261391,3.09273753 5.68760377,3.00789922 5.68797822,2.923 C5.68797822,2.276 5.972,1.586 6.471,1.022 C6.72166667,0.736 7.03966667,0.498 7.425,0.308 C7.765,0.133 8.137,0.028 8.518,0"/></svg>