<svg xmlns="http://www.w3.org/2000/svg" viewBox="0 0 13 13"><path d="M12.4438693,6.493 C12.4432026,6.04233333 12.4052026,5.609 12.3298693,5.193 L6.34986927,5.193 L6.34986927,7.652 L9.76586927,7.652 C9.6184702,8.43563402 9.15805964,9.12534708 8.49086927,9.562 L8.49086927,11.162 L10.5508693,11.162 C11.7518693,10.052 12.4438693,8.425 12.4438693,6.492"/><path d="M6.34986927,12.696 C8.06386927,12.696 9.50086927,12.131 10.5528693,11.161 L8.49086927,9.561 C7.92586927,9.942 7.20486927,10.175 6.35086927,10.175 C4.69986927,10.175 3.29686927,9.06 2.79486927,7.559 L0.682869274,7.559 L0.682869274,9.199 C1.75836104,11.3427313 3.95148102,12.6960647 6.34986927,12.696"/><path d="M2.79486927,7.554 C2.66287365,7.1655405 2.59465732,6.75826873 2.59286927,6.348 C2.59286927,5.926 2.66886927,5.523 2.79586927,5.142 L2.79586927,3.502 L0.682869274,3.502 C-0.227623091,5.28974903 -0.227623091,7.40525097 0.682869274,9.193 L2.32786927,7.911 L2.79486927,7.554 Z"/><path d="M6.34986927,2.526 C7.28486927,2.526 8.11486927,2.85 8.77986927,3.474 L10.5968693,1.657 C9.49486927,0.628 8.06386927,8.8817842e-16 6.34986927,8.8817842e-16 C3.94992419,0.00126276449 1.75640919,1.35754944 0.682869274,3.504 L2.79486927,5.142 C3.29686927,3.642 4.69986927,2.526 6.34986927,2.526"/></svg>