<svg xmlns="http://www.w3.org/2000/svg" viewBox="0 0 14 10"><path d="M1.48,6.1630005 C1.48,3.8950005 2.614,1.5280005 3.945,1.5280005 C4.685,1.5280005 5.276,1.9720005 6.213,3.3030005 C5.326,4.6830005 4.783,5.5220005 4.783,5.5220005 C3.6,7.3960005 3.206,7.7890005 2.565,7.7890005 C1.924,7.8390005 1.48,7.2470005 1.48,6.1620005 M9.22,5.3240005 L8.383,3.9440005 C8.185,3.5980005 7.939,3.2530005 7.742,2.9570005 C8.482,1.8230005 9.072,1.2310005 9.812,1.2310005 C11.292,1.2310005 12.475,3.4510005 12.475,6.2110005 C12.475,7.2470005 12.13,7.8380005 11.44,7.8380005 C10.75,7.8380005 10.503,7.3940005 9.22,5.3240005 M7.1,1.9720005 C6.016,0.542000498 5.08,2.49141138e-07 3.995,2.49141138e-07 C1.726,-0.000999501593 -8.8817842e-16,3.0070005 -8.8817842e-16,6.1630005 C-8.8817842e-16,8.1350005 0.937,9.3680005 2.514,9.3680005 C3.648,9.3680005 4.437,8.8250005 5.916,6.2620005 C5.916,6.2620005 6.508,5.1770005 6.952,4.4370005 C7.1,4.6840005 7.248,4.9300005 7.396,5.2270005 L8.086,6.4090005 C9.417,8.6770005 10.156,9.4170005 11.488,9.4170005 C13.016,9.4170005 13.854,8.1350005 13.854,6.1140005 C13.805,2.7610005 12.03,2.49141138e-07 9.91,2.49141138e-07 C8.776,2.49141138e-07 7.889,0.887000498 7.1,1.9720005"/></svg>