<svg xmlns="http://www.w3.org/2000/svg" viewBox="0 0 13 10"><path d="M2.04587997 7.52874C2.12304997 7.45164 2.22674997 7.40824 2.33526997 7.40824L12.37957 7.40824C12.56287 7.40824 12.65447 7.63004 12.52427 7.75784L10.53957 9.74264C10.46237 9.81984 10.35867 9.86324 10.25017 9.86324L.205829966 9.86324C.0225499663 9.86324-.0690900337 9.64134.0611399663 9.51354L2.04587997 7.52874ZM2.04587997.12058C2.12304997.04341 2.22674997 0 2.33526997 0L12.37957 0C12.56287 0 12.65447.22187 12.52427.34968L10.53957 2.33201C10.46237 2.40918 10.35867 2.45259 10.25017 2.45259L.205829966 2.45259C.0225499663 2.45259-.0690900337 2.23073.0611399663 2.10291L2.04587997.12058ZM10.53957 3.80075C10.46237 3.72358 10.35867 3.68018 10.25017 3.68018L.205829966 3.68018C.0225499663 3.68018-.0690900337 3.90204.0611399663 4.02986L2.04587997 6.01214C2.12304997 6.08934 2.22674997 6.13274 2.33526997 6.13274L12.37957 6.13274C12.56287 6.13274 12.65447 5.9109 12.52427 5.78309L10.53957 3.80075Z"/></svg>