<svg xmlns="http://www.w3.org/2000/svg" viewBox="0 0 14 14"><path d="M6.588,13.175 L8.564,2.635 C10.322,2.635 10.744,2.993 10.824,3.784 C10.824,3.784 12.002,3.343 12.597,2.445 C10.278,1.366 7.906,1.318 7.906,1.318 L6.588,2.964 L5.27,1.318 C5.27,1.318 2.899,1.366 0.58,2.445 C1.173,3.341 2.352,3.784 2.352,3.784 C2.432,2.994 2.866,2.636 4.612,2.635 L6.588,13.175 Z"/><path d="M6.588,0.801 C8.713,0.777 10.818,1.206 12.765,2.059 C13.057,1.529 13.175,1.318 13.175,1.318 C10.774,0.364 8.525,0.008 6.588,4.4408921e-16 C4.651,0.008 2.402,0.364 -8.8817842e-16,1.318 C-8.8817842e-16,1.318 0.15,1.581 0.413,2.059 C2.35856832,1.20567976 4.4636632,0.776819942 6.588,0.801"/></svg>