<svg xmlns="http://www.w3.org/2000/svg" width="24" height="24" viewBox="0 0 24 24" fill="none">
  <path fill-rule="evenodd" clip-rule="evenodd" d="M12 4.5C16.1421 4.5 19.5 7.85786 19.5 12C19.5 16.1421 16.1421 19.5 12 19.5V17.5C15.0376 17.5 17.5 15.0376 17.5 12C17.5 8.96243 15.0376 6.5 12 6.5V4.5Z" fill="#737373" />
  <path fill-rule="evenodd" clip-rule="evenodd" d="M12 8C13.0609 8 14.0783 8.42143 14.8284 9.17157C15.5786 9.92172 16 10.9391 16 12C16 13.0609 15.5786 14.0783 14.8284 14.8284C14.0783 15.5786 13.0609 16 12 16V14C12.5304 14 13.0391 13.7893 13.4142 13.4142C13.7893 13.0391 14 12.5304 14 12C14 11.4696 13.7893 10.9609 13.4142 10.5858C13.0391 10.2107 12.5304 10 12 10V8Z" fill="#737373" />
  <path fill-rule="evenodd" clip-rule="evenodd" d="M1 12C1 5.92487 5.92487 1 12 1C18.0751 1 23 5.92487 23 12C23 18.0751 18.0751 23 12 23C5.92487 23 1 18.0751 1 12ZM12 3C10.343 3 8.79053 3.44781 7.4571 4.22901L8.30826 5.03417C9.21331 5.89032 9.64401 7.13401 9.46229 8.36651C9.29902 9.4738 8.65835 10.4538 7.70956 11.0475L7.5025 11.1771C6.45534 11.8324 6.09467 13.1868 6.67725 14.2761L6.80369 14.5125C7.60079 16.0029 7.52073 17.8015 6.61261 19.2101C8.11463 20.3342 9.97957 21 12 21C16.9706 21 21 16.9706 21 12C21 7.02944 16.9706 3 12 3Z" fill="#737373" />
</svg>
