<svg xmlns="http://www.w3.org/2000/svg" width="18" height="18" viewBox="0 0 18 18" fill="none">
  <line x1="9" y1="11.75" x2="9" y2="14.75" fill="none" stroke="#737373" stroke-linecap="round" stroke-linejoin="round" stroke-width="1.5" />
  <line x1="6.25" y1="13.25" x2="6.25" y2="16.25" fill="none" stroke="#737373" stroke-linecap="round" stroke-linejoin="round" stroke-width="1.5" />
  <line x1="11.75" y1="13.25" x2="11.75" y2="16.25" fill="none" stroke="#737373" stroke-linecap="round" stroke-linejoin="round" stroke-width="1.5" />
  <path d="M14.477,13.687c1.064-.662,1.773-1.842,1.773-3.187,0-1.736-1.185-3.182-2.786-3.609-.186-2.314-2.102-4.141-4.464-4.141-2.485,0-4.5,2.015-4.5,4.5,0,.35,.049,.686,.124,1.013-1.597,.067-2.874,1.374-2.874,2.987,0,1.208,.714,2.249,1.743,2.725" fill="none" stroke="#737373" stroke-linecap="round" stroke-linejoin="round" stroke-width="1.5" />
  <path d="M9.705,8c.687-.767,1.684-1.25,2.795-1.25,.333,0,.657,.059,.964,.141" fill="none" stroke="#737373" stroke-linecap="round" stroke-linejoin="round" stroke-width="1.5" />
</svg>
