<svg xmlns="http://www.w3.org/2000/svg" width="18" height="18" viewBox="0 0 18 18" fill="none">
  <path d="M7.25 14.25C8.078 14.25 8.75 13.578 8.75 12.75C8.75 11.922 8.078 11.25 7.25 11.25C6.422 11.25 5.75 11.922 5.75 12.75C5.75 13.578 6.422 14.25 7.25 14.25Z" fill="#737373" />
  <path d="M15.5 3.25H12.75" stroke="#737373" stroke-width="1.5" stroke-linecap="round" stroke-linejoin="round" fill="none" />
  <path d="M14 6.25H12.75" stroke="#737373" stroke-width="1.5" stroke-linecap="round" stroke-linejoin="round" fill="none" />
  <path d="M15.5 9.25H12.75" stroke="#737373" stroke-width="1.5" stroke-linecap="round" stroke-linejoin="round" fill="none" />
  <path d="M7.25 12V6.75" stroke="#737373" stroke-width="1.5" stroke-linecap="round" stroke-linejoin="round" fill="none" />
  <path d="M4.75 10.306V4.25C4.75 2.869 5.869 1.75 7.25 1.75C8.631 1.75 9.75 2.869 9.75 4.25V10.306C10.367 10.937 10.75 11.798 10.75 12.75C10.75 14.683 9.183 16.25 7.25 16.25C5.317 16.25 3.75 14.683 3.75 12.75C3.75 11.798 4.133 10.937 4.75 10.306Z" stroke="#737373" stroke-width="1.5" stroke-linecap="round" stroke-linejoin="round" fill="none" />
</svg>
