<svg xmlns="http://www.w3.org/2000/svg" width="18" height="18" viewBox="0 0 502 502" class="size-5 text-neutral-300!" color="#586879"><path fill="currentColor" d="M244.168 100.833h-37.103v136.672h63.068v-25.781h-25.967V100.833zm69.42 0h-37.104v136.672h63.068v-25.781h-25.967V100.833zm-223.699 1.548c-.978-1.058-2.382-1.549-3.825-1.549H36.036c-1.439 0-2.847.487-3.823 1.549a246 246 0 0 0-13.703 16.268c-.722.943-1.074 2.22-1.074 3.404v94.219c0 1.195.35 2.468 1.074 3.402 4.657 6.105 10.24 12.535 13.692 16.273.981 1.057 2.382 1.552 3.824 1.552h50.03c1.44 0 2.847-.485 3.824-1.552 3.451-3.733 9.034-10.167 13.695-16.273.717-.938 1.07-2.213 1.07-3.402v-37.84h-33.88v36.304H51.318v-90.132h19.448v35.302h33.88v-37.839c0-1.195-.352-2.468-1.07-3.402-4.661-6.104-10.244-12.533-13.695-16.271h.003v-.014h.005zm94.91 0c-.979-1.058-2.384-1.549-3.825-1.549h-50.029c-1.438 0-2.844.487-3.821 1.549a250 250 0 0 0-13.694 16.268c-.719.943-1.074 2.22-1.074 3.404v115.446h33.88v-40.263h19.448v40.263h33.881V122.056c0-1.191-.352-2.468-1.074-3.402-4.66-6.099-10.243-12.532-13.695-16.268h.007v-.005zm-38.56 72.132v-49.909h19.448v49.909zm114.332 189.835h-19.467V250.999h-33.908v114.887c0 1.187.352 2.457 1.075 3.388a253 253 0 0 0 13.709 16.191c.977 1.052 2.385 1.539 3.827 1.539h50.063c1.449 0 2.854-.488 3.834-1.539 3.455-3.719 9.041-10.128 13.701-16.191.725-.94 1.074-2.214 1.074-3.388V250.999h-33.908zM184.616 252.54c-.978-1.053-2.381-1.541-3.828-1.541h-68.657v136.005h68.657c1.448 0 2.853-.488 3.828-1.539 3.454-3.719 9.047-10.128 13.708-16.191.718-.94 1.076-2.214 1.076-3.388v-93.755c0-1.189-.351-2.458-1.076-3.387a248 248 0 0 0-13.708-16.19zm-19.127 78.581v33.227h-19.444V273.66h19.444zm267.638-80.122h31.699v59.294c0 1.16-.398 2.281-1.131 3.178l-22.24 27.123v46.41h-36.52v-46.41l-22.162-27.123a4.96 4.96 0 0 1-1.143-3.178v-59.294h31.641v50.554l8.242 9.869h3.42l8.191-9.869v-50.554zm-381.654.698c-.435-.479-1.062-.698-1.699-.698H24.496c-.641 0-1.271.219-1.702.698-1.54 1.686-2.794 3.328-4.877 6.084-.317.424-.479 1-.479 1.533v43.102c0 .539.161 1.107.479 1.533l4.877 6.082c.435.478 1.063.697 1.702.697h25.278c.639 0 1.271-.221 1.699-.697 1.543-1.687 2.798-3.328 4.879-6.082.318-.426.479-1 .479-1.533v-43.102c0-.539-.161-1.109-.479-1.533zm-9.747 35.252v10.896h-9.197v-33.973h9.197zm21.541 23.78h15.104v-19.714h16.173v-13.872H78.371v-12.272h18.257V251h-33.36zm311.751-59.73H301.74v27.849h19.686v108.156h33.908V278.849h19.686v-27.85zm89.678 115.005h10.166c.826 0 1.451.215 1.896.636.459.429.68 1.036.68 1.824v2.594c0 .657-.193 1.187-.584 1.578-.396.396-.943.587-1.666.587h-.543l3.07 6.123h-3.016l-2.469-5.35h-5.063v5.35h-2.475zm9.904 6.033a.52.52 0 0 0 .352-.359v-3.339c0-.124-.232-.358-.352-.358h-7.438v4.053h7.438zm-3.746-13.279c-7.852 0-14.215 6.322-14.215 14.127s6.363 14.131 14.215 14.131 14.225-6.326 14.229-14.131c-.005-7.805-6.374-14.127-14.229-14.127m0 26.075c-6.643 0-12.033-5.343-12.033-11.948s5.389-11.951 12.033-11.953 12.031 5.354 12.033 11.953c0 6.607-5.393 11.948-12.033 11.948"></path></svg>