<svg xmlns="http://www.w3.org/2000/svg" viewBox="0 0 466 426" class="size-5 text-neutral-300!" color="#586879"><path fill="#3390FF" d="m215.125 30.8-78-30.8h-1.4l-80.8 15c-1.4 0-2.1 1.4-2.1 2.9 0 .7.7 2.1 1.4 2.1 9.3 4.3 18.6 8.6 27.9 13.6 15 7.9 42.2 25 47.9 35.1 2.1 3.6 2.9 7.9 2.9 12.2l.7 259s.7 32.9 77.3 85.1c1.4.7 5.7 1.4 6.4 0V33c-.8-.7-.8-2.2-2.2-2.2M250.925 30.8l78-30.8h1.4l80.8 15c1.4 0 2.1 1.4 2.1 2.9 0 .7-.7 2.1-1.4 2.1-9.3 4.3-18.6 8.6-27.9 13.6-15 7.9-42.2 25-47.9 35.1-2.1 4.3-2.9 8.6-2.9 12.9l-.7 259s-.7 32.9-77.3 85.1c-1.4.7-5.7 1.4-6.4 0V33c.8-.7.8-2.2 2.2-2.2"></path><path fill="#CCE1FF" d="M34.825 138.3h129.5l17.2 15.7c.7.7.7.7 1.4.7s1.4 0 1.4-.7l45.8-50.1c.7-.7.7-1.4.7-2.9-.7-.7-1.4-1.4-2.1-1.4h-168.1c-7.2-.7-13.6 1.4-19.3 5-5 4.3-9.3 11.4-9.3 24.3v6.4c0 .8 1.4 2.2 2.8 3q0-1.2 0 0m430-36.5h-184.6l-1.4.7-33.6 31.5c-.7.7-.7 2.9 0 3.6s1.4.7 1.4.7h148.1l7.9 10.7c.7.7 2.1 1.4 3.6.7l60.1-42.9c.7-.7 1.4-2.1 0-3.6-.1-1.4-.8-1.4-1.5-1.4m-61.6 196.7c-5 .7-10 1.4-15 1.4-43.6-1.4-79.4-35.1-83-78.7-.7-5.7-.7-11.4-.7-17.2 0-14.3.7-29.3 3.6-43.6 0-.7 0-1.4-.7-2.1s-1.4-.7-2.1-.7h-65.8c-.7 0-2.1.7-2.1 1.4-5.7 16.5-8.6 34.3-8.6 52.2 0 14.3 2.1 21.5 7.2 38.6 12.9 39.3 60.1 77.3 98 77.3 57.2 0 71.5-20 72.2-26.5-.1-1.4-.8-2.1-3-2.1m-277.5-138.8-2.1-.7h-74.4c-1.4 0-2.1 1.4-2.1 2.1s0 1.4.7 1.4c0 0 100.9 116.6 103 119.5 0 0 0 .7.7.7l-.7.7h-59.4c-8.6 0-17.2-2.9-24.3-7.9-2.9-2.1-5-5-7.2-7.9-.7-.7-.7-.7-1.4-.7s-1.4 0-2.1.7l-55.9 51.6c-.7.7-.7 2.9 0 3.6s.7.7 1.4.7h208.2c12.2 0 20-12.9 20.7-25 0-5-1.4-10-4.3-13.6-9.2-9.3-100.8-125.2-100.8-125.2"></path></svg>