<svg xmlns="http://www.w3.org/2000/svg" fill="none" viewBox="0 0 64 64" class="size-5 text-neutral-300!" color="#586879"><path fill="currentColor" d="M17.48 1.832c-1.47.325-2.89.58-4.23.778-.31.17-.73.419-1.23.739a27.3 27.3 0 0 0-4.53 3.736 24.6 24.6 0 0 0-5.29 8.521c.03 16.15.01 28.066-.03 28.751a9 9 0 0 1-.26 1.7c-.07.258-.28 1.063-.66 2.091-.16.437-.38.97-.66 1.568l9.87-8.362c.07-1.053.15-2.424.21-4.029.12-3.439.06-6.021.04-6.783s-.06-2.544-.22-4.852c-.17-2.506-.4-4.678-.62-6.426l-.01-.093.06-.069A39.5 39.5 0 0 1 24.43 9.074l.22.338a15.8 15.8 0 0 0-4.88 8.8 51.6 51.6 0 0 0-.71 12.958c.08 2.229.23 3.341.4 5.6.04.637.08 1.174.1 1.646.03.525.06 1.069.1 1.826.03.843.09 2.144.14 3.855L.99 60.162a77 77 0 0 1 8.94-1.829c1.62-.226 3.48-.4 3.73-.429 0 0 2.2-.217 4.56-.355 1.55-.091 7.35-.368 14.72-.109a184 184 0 0 1 9.88.616 18.6 18.6 0 0 0 9.57-4.983 18.36 18.36 0 0 0 4.77-8.172q0-13.106.01-26.213a14 14 0 0 1 0-1.5 12.3 12.3 0 0 1 .53-2.756 17 17 0 0 1 1.71-3.92l-10.4 8.885c-.23 3.11-.35 6.487-.3 10.1a114 114 0 0 0 .79 11.9l.01.09-.06.068a37 37 0 0 1-4.49 4.276 37.8 37.8 0 0 1-10.02 5.753l-.23-.325a20.7 20.7 0 0 0 2.87-4.084c.19-.358.38-.751.58-1.2a23.6 23.6 0 0 0 1.69-5.956 50 50 0 0 0 .64-6.876 60 60 0 0 0-.16-6.429q-5.4 4.573-10.79 9.146-4.245-4.209-8.5-8.419v.092a26.3 26.3 0 0 1 .16-5.173 26.7 26.7 0 0 1 1.08-4.75l.11-.326q3.645 3.95 7.28 7.9L58.62.489a39 39 0 0 1-6.81 2.364 39.7 39.7 0 0 1-6.78 1.051 70.3 70.3 0 0 1-17.5-1.25 49 49 0 0 0-6.1 1.535c-1.22.395-2.37.817-3.43 1.252l-.42-.525c.56-.521 1.17-1.05 1.83-1.576A32.3 32.3 0 0 1 24.46.013a61 61 0 0 1-6.98 1.985"></path></svg>