<svg xmlns="http://www.w3.org/2000/svg" fill="none" viewBox="0 0 600 600" class="size-5 text-neutral-300!" color="#586879"><path fill="#fa9c1e" d="M296.704.004c-66.766.428-132.772 24.229-184.63 66.083l56.662 65.786c47.822-37.739 112.256-53.118 172.019-41.237 32.843 6.318 64.095 20.74 90.463 41.237l56.661-65.786C434.24 22.804 365.767-1.03 296.704.004"></path><path fill="#4a4c4e" d="M93.628 82.253C33.924 138.342-1.082 219.877.026 302.122c.035 85.371 38.978 169.23 103.652 224.697 59.78 52.284 141.086 78.919 220.461 72.18 86.01-6.405 167.648-52.344 218.117-122.142 49.125-66.329 68.371-153.797 52.064-234.909-11.99-62.092-44.543-119.636-90.84-162.407l-56.661 65.786c45.656 43.034 70.585 106.557 65.885 169.224-2.056 31.049-11.074 61.69-26.314 88.96L371.119 291.973l-58.26-125.583-.088 190.178 116.695 112.927c-52.002 40.402-123.353 53.802-186.578 35.894-25.744-7.181-50.122-19.23-71.309-35.398l117.29-113.422c-.205-61.83.718-128.577 0-190.383l-58.347 125.787-116.464 112.464c-35.53-62.025-36.38-142.21-2.182-204.927 10.691-20.092 24.841-38.428 41.257-54.182L96.471 79.543z"></path></svg>