<svg xmlns="http://www.w3.org/2000/svg" fill="none" viewBox="76 23 58 56" class="size-5 text-neutral-300!" color="#586879"><path fill="#FFF" d="M103.3 43.2s1.3.1 2.4 1.5l-.6.1-.3-.1s-.9-1.1-1.5-1.5m-2 6.2-.6-1.5h-.2l-1 1.2c.7.6 1.8.3 1.8.3m9.2-8.8-.5.2.6 1.1 2 .7c-.8-1.7-2.1-2-2.1-2m-5.7 2.1c.6.7 1.2 1.7 1.2 1.7 1-1 3.1-1.4 5.8-1.3-3.8-.8-7-.4-7-.4m-3.7-1.5s1.1 0 2.6.3c-1-.7-2.6-1.1-2.6-1.1zm9.2 5.5-1.7 1.5 1.3.4 1.3-1.4-.7-.3zM99 38.8s.7.4.8.4 1.5.5 2.1.7c.5.2.8 0 .9 0s1.8-1 1.8-1c-1.5-.6-2.9-1-2.9-1-.1 0-2.7.9-2.7.9m10.2.9c-.1-.2-.3-.2-1.5-.4-1.1-.1-2.1-.2-2.3-.2s-.3.1-.3.1-.6.4-1.1.7-.6.4-.7.6c-.1.1.2.5.2.5l.8 1c.1 0 .4.2.4.2s1.6-.1 2.6-.2h2.6c.1 0 0-.4-.2-.9-.2-.4-.5-1.4-.5-1.4m-9.5 1.1s.1 0 .3.1c.2 0 .3-.2.3-.4 0-.3-.3-.4-.3-.4h-.2l-.3.1-.1.7h.1zc-.1-.2-.1-.3-.1-.5 0-.1.2-.3.3-.3 0 0 .2 0 .1.4 0 .4-.3.4-.3.4m16.9 7.9-.8 1.1v.1h1.1c.2-.7-.3-1.2-.3-1.2m-20-5.2h-.2l-.5-.1c-.5-.1-.3-1-.3-1l-.6.2c-.2-.4-1.1-1.5-1.1-1.5l-.2.8c.1.1.6.9.7 1.1l-.3.3s-.1.2-.1.3-.1.2-.1.2l-.4.2h-.1L92 42.9v.8h.1c.1.2.3.6.8.8.4.2.9.2 1.1.1.2.1.3.1.4.2.4.2.5.1.5.1l.6-.2h.1l.1-.1.2-.4s1 .1 1.4.1c.4-.6 1.7-1.5 2.6-1.6.9 0 2.4.2 3.6 1.4 1.1 1.2.8 2.8.8 2.8l2.2.7-1-.7c-.8-2-2.7-3.8-2.7-3.8s-.5-.1-.8-.1c-.3-.1-.5-.3-.5-.3s-.1-.1-.3-.4l-.2-.4s-.2-.2-.5-.4-1.4-.3-2-.4-.6 0-.6 0c1.7.4 2.2.5 2.3.6 0 0 .1.2.2.3-1.4-.3-2.7-.1-3 0 .2.3.2.7 0 1-.2.2-.8.5-.8.5m19 7.2.3 1.3s.3-.3.6-.7.4-.8.4-.8l-1.2.1zm-24.1-9.1-.1 1.1h.6l.1-.7v.4h.1v-.6h-.1v-.4l.9.5.1.2.2.2h.2l.1-.1v-.1c-.6 0-.6-.3-.6-.3s.1-.7.2-.9.5-.1.5-.1l-.1-.1h-.2c-.2-.1-.8-.5-1-.6V40l.1-.1v-.4h.1c0-.1.1-.1.1-.2.2 0 1.7-.3 1.7-.3l-1.4-.3v-.1q-.6-.15-.9-.3c-.5.6-.7 1.4-.7 1.4s-.1 1.4-.1 1.6c-.1.2.2.3.2.3m23.5 7.9.2.3.1-.1.8-1v-.1c-.4 0-1.1.9-1.1.9m-2.4-1.8-.6-.2-1.4 1.6 1 .3c.2-.8 1-1.7 1-1.7m2.1 2.3c-.5 1-.4 1.7-.4 1.7l.5-1.1v-.2c.1 0 0-.2-.1-.4m-.5-6.5s-.2.4-.3.5-.8.2-1.2.3c-.4.2-1.1.5-1.3.7-.1.1-.1.4-.1.5 0 0 .2.1.3.1l-.9.8.2.2 2.2.7c.5-.4 1.2-.5 1.2-.5-.4-.2-2.1-.9-2.6-1.1 0 0-.3-.1-.3-.2v-.3s1.3-1 3.3-1l.3-.6zm1.3 8.8-.4-1.2h-.1l-.6 1.1.1.1c.5.2 1 0 1 0m-15.1-11.4.3.1s.2 0 .2-.2v-.4l-.3-.2-.4-.1c.1.1.1.2.1.2h.1c0-.1.1-.1.1 0 0 0 .2.1.1.4.1.1-.1.2-.2.2m-.9 5.5c-.7 1.3-.2 2.2-.2 2.2l.9-1.3v-.2zM93 38.7l1.2.3c.1 0 .8-.1.8-.1l-1.9-.5zm.7-.3c1.6.2 1.9.5 1.9.5s.6-.1.9-.1c-.5-.4-2.7-1.1-2.7-1.1s-.1.3-.1.7m2.4 3.1c-.3.2-.6.8-.5 1.3s.2.5.5.5c-.5-.2-.4-1 0-1.5.3-.4.6-.1.6-.1s-.3-.4-.6-.2M89 56.3c-1.3 0-2.8.5-1.9 1.9 7.4 12.7 15.2 15.7 18.5 17.3 1.5-.7 3.9-1.8 6.8-3.8 1.7-1.1 1.5-2.8 1.1-3.9-2.1-5.2-13.6-11.1-24.5-11.5m41.7-23.7c-3-2.1-10.4-5.9-25.1-5.9-5.1 0-9.4.5-12.8 1.2.8 1.3 1.2 2.8 1.2 4.4 0 2.2-.8 4.2-2.1 5.7q.45.15 1.2.3l.2-.5s.2 0 .3.1c0-.5.3-.5.3-.5s0-.1.1-.1c.5.1 1.9.8 2.5 1.1s.6.4.6.4 1.4 0 1.8-.1c.4 0 1.1-.3 2.1-.6s1.2-.4 1.4-.4 2 .1 3.6.3 3.1.8 3.4 1l.5.1.1-.3-.8-.3s.1-.5.1-.6.1-.2.2-.2 1 .2 1.3.3 1.3.8 1.4.8.1.1.1.1c0 .2-.2.6-.2.6l-.3-.1.3.1s.3.1.4.2.4.3.7.6c.3.2.2.5.2.5l.7.7v.3l1.7 1.7v.1l-.8.5s1.1-.1 1.9.3.9.6.9.8c-.2.1-.5.2-.5.2-.6.2-2.1 1.2-2.1 1.2v.1l.8.2c.9-.8 2.5-1.1 3.7-.9 4.1.8 6.9 3.5 7.5 5.8 0 .1.1.3.1.4 4.1-9.6 3.7-16.5 3.4-19.6m-14.4 14.6c.1.1.2.1.3.2.6.4.9.6 1 1.5.1.7-.1 1.7-.6 2.6 2.8 1.9 6.7.4 8.2 1.9-.3-3.8-5.9-7.6-8.9-6.2m-23-4.9-.2.1v.8l.2-.1zm28.9 12.4c-2.1 0-4.2-.7-5.7-2.5v.1c-.9 1.2-1.9 1.2-2.3 1.2s-1.7-.6-2.2-1.2-.5-1.7-.5-1.7l-2-.7-2.5-1.4-.4-.1c-.8.4-1.8.1-2.7-.6-.1.4-.6 1.4-1.2 1.9s-1.8 1.2-2.7 1.2-2.9-1-3.5-2.4 0-2.9 0-2.9l-1-.2-.4-.5s-1.2 1-2.5.6-2.4-1.5-2.7-2.5c-.2-1 .1-1.9.2-2-.2-.7-.2-1.1-.2-1.1h-.1v-.3c-1.3.9-2.8 1.3-4.4 1.3-1.8 0-3.5-.6-4.9-1.5.2 2.2.8 4.8 1.6 7.7 1.1 4 4.7 5.3 10.1 6.2 11.9 1.9 23.3 11 22.5 16.6 3-2.5 6.2-6.2 9.4-11.7 1.3-2.1.1-3.5-1.9-3.5M90.4 40.9l-.1 1.1h.7v-.1h-.1v-.1h-.1l.1-.2.1-.5-.1-.1v-.2l.1-.1.1-1.2-.5-.3c.2-.8.7-1.5.7-1.5H91c-.5.6-.7 1.4-.7 1.4s-.1 1.3-.1 1.5c0 .3.2.3.2.3m11 6.7.5 1.6c1-.7 1.2-1.8 1.2-1.8l-1.6.1zm.9-2.5-.8 1.4.1.1 1.6.1c0-1.1-.9-1.6-.9-1.6m-10-3.1-.1.6h.1zm7.6 3.8.8.6.2-.1.9-1.4c-1.1-.1-1.9.9-1.9.9m-7.4-3.7-.1-.1v.7h.1zm.3.2-.1.7h.1zm.2.1-.1.7h.1zm-.4-.2-.1.7h.1z"></path><path fill="#FFF" d="m133.1 32.4-.1-1.1-1-.7c-4.2-2.9-12.2-6.3-26.5-6.3-5.4 0-10.3.5-14.6 1.5-1.5-1.3-3.5-2.1-5.6-2.1-4.7 0-8.6 3.8-8.6 8.6 0 1.5.4 2.9 1.1 4.2.2 7.4 2.5 15.1 7 22.9 7.4 12.5 15.3 16.2 19.1 17.9.3.1.5.2.7.3l1 .5 1-.5c.2-.1.5-.2.7-.3 3.9-1.7 11.7-5.4 18.9-17.9 7.9-13.7 7.2-23.7 6.9-27"></path><path fill="url(#a)" d="M103.3 43.2s1.3.1 2.4 1.5l-.6.1-.3-.1s-.9-1.1-1.5-1.5m-2 6.2-.6-1.5h-.2l-1 1.2c.7.6 1.8.3 1.8.3m9.2-8.8-.5.2.6 1.1 2 .7c-.8-1.7-2.1-2-2.1-2m-5.7 2.1c.6.7 1.2 1.7 1.2 1.7 1-1 3.1-1.4 5.8-1.3-3.8-.8-7-.4-7-.4m-3.7-1.5s1.1 0 2.6.3c-1-.7-2.6-1.1-2.6-1.1zm9.2 5.5-1.7 1.5 1.3.4 1.3-1.4-.7-.3zM99 38.8s.7.4.8.4 1.5.5 2.1.7c.5.2.8 0 .9 0s1.8-1 1.8-1c-1.5-.6-2.9-1-2.9-1-.1 0-2.7.9-2.7.9m10.2.9c-.1-.2-.3-.2-1.5-.4-1.1-.1-2.1-.2-2.3-.2s-.3.1-.3.1-.6.4-1.1.7-.6.4-.7.6c-.1.1.2.5.2.5l.8 1c.1 0 .4.2.4.2s1.6-.1 2.6-.2h2.6c.1 0 0-.4-.2-.9-.2-.4-.5-1.4-.5-1.4m-9.5 1.1s.1 0 .3.1c.2 0 .3-.2.3-.4 0-.3-.3-.4-.3-.4h-.2l-.3.1-.1.7h.1zc-.1-.2-.1-.3-.1-.5 0-.1.2-.3.3-.3 0 0 .2 0 .1.4 0 .4-.3.4-.3.4m16.9 7.9-.8 1.1v.1h1.1c.2-.7-.3-1.2-.3-1.2m-20-5.2h-.2l-.5-.1c-.5-.1-.3-1-.3-1l-.6.2c-.2-.4-1.1-1.5-1.1-1.5l-.2.8c.1.1.6.9.7 1.1l-.3.3s-.1.2-.1.3-.1.2-.1.2l-.4.2h-.1L92 42.9v.8h.1c.1.2.3.6.8.8.4.2.9.2 1.1.1.2.1.3.1.4.2.4.2.5.1.5.1l.6-.2h.1l.1-.1.2-.4s1 .1 1.4.1c.4-.6 1.7-1.5 2.6-1.6.9 0 2.4.2 3.6 1.4 1.1 1.2.8 2.8.8 2.8l2.2.7-1-.7c-.8-2-2.7-3.8-2.7-3.8s-.5-.1-.8-.1c-.3-.1-.5-.3-.5-.3s-.1-.1-.3-.4l-.2-.4s-.2-.2-.5-.4-1.4-.3-2-.4-.6 0-.6 0c1.7.4 2.2.5 2.3.6 0 0 .1.2.2.3-1.4-.3-2.7-.1-3 0 .2.3.2.7 0 1-.2.2-.8.5-.8.5m19 7.2.3 1.3s.3-.3.6-.7.4-.8.4-.8l-1.2.1zm-24.1-9.1-.1 1.1h.6l.1-.7v.4h.1v-.6h-.1v-.4l.9.5.1.2.2.2h.2l.1-.1v-.1c-.6 0-.6-.3-.6-.3s.1-.7.2-.9.5-.1.5-.1l-.1-.1h-.2c-.2-.1-.8-.5-1-.6V40l.1-.1v-.4h.1c0-.1.1-.1.1-.2.2 0 1.7-.3 1.7-.3l-1.4-.3v-.1q-.6-.15-.9-.3c-.5.6-.7 1.4-.7 1.4s-.1 1.4-.1 1.6c-.1.2.2.3.2.3m23.5 7.9.2.3.1-.1.8-1v-.1c-.4 0-1.1.9-1.1.9m-2.4-1.8-.6-.2-1.4 1.6 1 .3c.2-.8 1-1.7 1-1.7m2.1 2.3c-.5 1-.4 1.7-.4 1.7l.5-1.1v-.2c.1 0 0-.2-.1-.4m-.5-6.5s-.2.4-.3.5-.8.2-1.2.3c-.4.2-1.1.5-1.3.7-.1.1-.1.4-.1.5 0 0 .2.1.3.1l-.9.8.2.2 2.2.7c.5-.4 1.2-.5 1.2-.5-.4-.2-2.1-.9-2.6-1.1 0 0-.3-.1-.3-.2v-.3s1.3-1 3.3-1l.3-.6zm1.3 8.8-.4-1.2h-.1l-.6 1.1.1.1c.5.2 1 0 1 0m-15.1-11.4.3.1s.2 0 .2-.2v-.4l-.3-.2-.4-.1c.1.1.1.2.1.2h.1c0-.1.1-.1.1 0 0 0 .2.1.1.4.1.1-.1.2-.2.2m-.9 5.5c-.7 1.3-.2 2.2-.2 2.2l.9-1.3v-.2zM93 38.7l1.2.3c.1 0 .8-.1.8-.1l-1.9-.5zm.7-.3c1.6.2 1.9.5 1.9.5s.6-.1.9-.1c-.5-.4-2.7-1.1-2.7-1.1s-.1.3-.1.7m2.4 3.1c-.3.2-.6.8-.5 1.3s.2.5.5.5c-.5-.2-.4-1 0-1.5.3-.4.6-.1.6-.1s-.3-.4-.6-.2M89 56.3c-1.3 0-2.8.5-1.9 1.9 7.4 12.7 15.2 15.7 18.5 17.3 1.5-.7 3.9-1.8 6.8-3.8 1.7-1.1 1.5-2.8 1.1-3.9-2.1-5.2-13.6-11.1-24.5-11.5m41.7-23.7c-3-2.1-10.4-5.9-25.1-5.9-5.1 0-9.4.5-12.8 1.2.8 1.3 1.2 2.8 1.2 4.4 0 2.2-.8 4.2-2.1 5.7q.45.15 1.2.3l.2-.5s.2 0 .3.1c0-.5.3-.5.3-.5s0-.1.1-.1c.5.1 1.9.8 2.5 1.1s.6.4.6.4 1.4 0 1.8-.1c.4 0 1.1-.3 2.1-.6s1.2-.4 1.4-.4 2 .1 3.6.3 3.1.8 3.4 1l.5.1.1-.3-.8-.3s.1-.5.1-.6.1-.2.2-.2 1 .2 1.3.3 1.3.8 1.4.8.1.1.1.1c0 .2-.2.6-.2.6l-.3-.1.3.1s.3.1.4.2.4.3.7.6c.3.2.2.5.2.5l.7.7v.3l1.7 1.7v.1l-.8.5s1.1-.1 1.9.3.9.6.9.8c-.2.1-.5.2-.5.2-.6.2-2.1 1.2-2.1 1.2v.1l.8.2c.9-.8 2.5-1.1 3.7-.9 4.1.8 6.9 3.5 7.5 5.8 0 .1.1.3.1.4 4.1-9.6 3.7-16.5 3.4-19.6m-14.4 14.6c.1.1.2.1.3.2.6.4.9.6 1 1.5.1.7-.1 1.7-.6 2.6 2.8 1.9 6.7.4 8.2 1.9-.3-3.8-5.9-7.6-8.9-6.2m-23-4.9-.2.1v.8l.2-.1zm28.9 12.4c-2.1 0-4.2-.7-5.7-2.5v.1c-.9 1.2-1.9 1.2-2.3 1.2s-1.7-.6-2.2-1.2-.5-1.7-.5-1.7l-2-.7-2.5-1.4-.4-.1c-.8.4-1.8.1-2.7-.6-.1.4-.6 1.4-1.2 1.9s-1.8 1.2-2.7 1.2-2.9-1-3.5-2.4 0-2.9 0-2.9l-1-.2-.4-.5s-1.2 1-2.5.6-2.4-1.5-2.7-2.5c-.2-1 .1-1.9.2-2-.2-.7-.2-1.1-.2-1.1h-.1v-.3c-1.3.9-2.8 1.3-4.4 1.3-1.8 0-3.5-.6-4.9-1.5.2 2.2.8 4.8 1.6 7.7 1.1 4 4.7 5.3 10.1 6.2 11.9 1.9 23.3 11 22.5 16.6 3-2.5 6.2-6.2 9.4-11.7 1.3-2.1.1-3.5-1.9-3.5M90.4 40.9l-.1 1.1h.7v-.1h-.1v-.1h-.1l.1-.2.1-.5-.1-.1v-.2l.1-.1.1-1.2-.5-.3c.2-.8.7-1.5.7-1.5H91c-.5.6-.7 1.4-.7 1.4s-.1 1.3-.1 1.5c0 .3.2.3.2.3m11 6.7.5 1.6c1-.7 1.2-1.8 1.2-1.8l-1.6.1zm.9-2.5-.8 1.4.1.1 1.6.1c0-1.1-.9-1.6-.9-1.6m-10-3.1-.1.6h.1zm7.6 3.8.8.6.2-.1.9-1.4c-1.1-.1-1.9.9-1.9.9m-7.4-3.7-.1-.1v.7h.1zm.3.2-.1.7h.1zm.2.1-.1.7h.1zm-.4-.2-.1.7h.1z"></path><defs><radialGradient id="a" cx="85.227" cy="32.138" r="47.776" gradientUnits="userSpaceOnUse"><stop offset="0"></stop><stop offset="0.131"></stop><stop offset="0.345"></stop><stop offset="0.616"></stop><stop offset="0.928"></stop><stop offset="1"></stop></radialGradient></defs><circle cx="85.4" cy="32.3" r="6.2" fill="#9a9a9a"></circle></svg>