<svg shape-rendering="geometricPrecision" text-rendering="geometricPrecision" xmlns="http://www.w3.org/2000/svg" xmlns:xlink="http://www.w3.org/1999/xlink" viewBox="0 0 1173 872"><defs><path id="a" d="M198,109 L974,109 C978.418278,109 982,112.581722 982,117 L982,766.073417 C982,770.491695 978.418278,774.073417 974,774.073417 C972.858142,774.073417 971.729515,773.828979 970.689979,773.356532 L932.5,756 L932.5,756 L883,776.438269 L833.5,756 L784,776.438269 L734.5,756 L685,776.438269 L635.5,756 L586,776.438269 L536.5,756 L487,776.438269 L437.5,756 L388,776.438269 L338.5,756 L289,776.438269 L239.5,756 L201.450228,774.188548 C197.463975,776.094056 192.687758,774.407279 190.782249,770.421025 C190.267285,769.343738 190,768.164839 190,766.970797 L190,117 C190,112.581722 193.581722,109 198,109 Z"/><path id="c" d="M864.58,217.22 C871.22,208.57 877.16,201.5 877.77,201.5 C878.39,201.5 881.59,205.18 884.89,209.68 C894.88,223.32 897.63,223.17 903.5,208.63 C913.49,183.89 915.28,180 916.68,180 C917.48,180 920.98,182.02 924.45,184.5 C931.53,189.55 935.18,190.18 937.43,186.75 C940.28,182.39 946,166.85 946,163.44 C946,156.89 943.52,159.97 938.69,172.51 C933.23,186.69 934.27,186.21 924.66,178.92 C918.54,174.28 913.89,173.68 911.61,177.25 C910.48,179.03 902.65,197.95 896.93,212.73 C896.45,213.96 895.49,214.74 894.78,214.46 C894.08,214.18 891.03,210.4 888,206.05 C882.05,197.5 879.38,195.53 875.67,196.93 C872.94,197.97 848,230.43 848,232.95 C848,235.58 849.21,236.21 850.94,234.49 C851.8,233.63 857.93,225.86 864.58,217.22 Z"/></defs><g fill="none" fill-rule="evenodd"><use xlink:href="#a" fill="#000"/><use xlink:href="#a" fill="#FFF"/><rect width="139" height="36" x="807" y="326" fill="#F0F0F0" rx="8"/><rect width="98" height="92" x="235" y="152" fill="#F0F0F0" rx="8"/><rect width="139" height="36" x="807" y="405" fill="#F0F0F0" rx="8"/><path fill="#43C4C5" fill-rule="nonzero" d="M305.62,806.94 C299.98,811.03 294.87,814.54 294.26,814.75 C293.06,815.15 287.82,808.1 288.5,807 C289.22,805.84 309.78,791 310.66,791.009995 C311.59,791.03 316.04,797.53 315.94,798.74 C315.91,799.16 311.26,802.85 305.62,806.94 Z M1019.93,540.1 C1018.04,541.67 1016.23,542.96 1015.89,542.970075 C1015.01,543.01 1001,527.07 1001,526.04 C1001,525.57 1002.44,523.96 1004.2,522.48 L1007.41,519.78 L1011.38,524.14 C1013.56,526.54 1017.14,530.47 1019.35,532.88 L1023.36,537.26 L1019.93,540.1 Z M669.92,72.93 C668.66,75.17 667.15,76.96 666.57,76.91 C665.98,76.87 661.78,75.07 657.23,72.92 L648.96,69.01 L650.96,65.07 C652.07,62.91 653.41,60.87 653.94,60.54 C654.69,60.07 670.12,66.98 671.85,68.55 C672.04,68.73 671.17,70.7 669.92,72.93 Z M1101,826.66 C1101,831.8 1100.89,835.96 1100.75,835.9 C1100.61,835.85 1098.42,835.11 1095.87,834.27 C1091.32,832.75 1091.24,832.64 1090.63,827.61 C1089.55,818.59 1089.83,813.72 1091.4,814.32 C1092.16,814.62 1094.64,815.41 1096.9,816.09 L1101,817.32 L1101,826.66 Z M1163.3,113.07 C1160.17,116.88 1157.58,119.98 1157.55,119.970024 C1157.52,119.95 1155.81,118.55 1153.75,116.87 L1149.99,113.8 L1152.96,110.15 C1154.59,108.14 1157.48,104.7 1159.38,102.5 L1162.83,98.5 L1165.91,101.44 C1167.61,103.05 1169,104.77 1169,105.26 C1169,105.75 1166.44,109.26 1163.3,113.07 Z M170,861.48 C170,867.26 169.66,871.96 169.25,871.9 C168.84,871.85 166.81,871.11 164.75,870.27 L161,868.73 L161,858.3 C161,847.94 161.02,847.87 163.25,848.57 C166.35,849.53 168.04,849.92 168.94,850.98 C170.02,852.23 170.02,854.41 170,859.58 C170,860.17 170,860.8 170,861.48 Z M1105,397.8 C1105.32,403.63 1105.13,406.97 1104.5,406.92 C1103.95,406.88 1101.64,406.18 1099.37,405.38 L1095.25,403.92 L1094.76,395.21 C1094.5,390.42 1094.44,386.31 1094.65,386.08 C1094.85,385.84 1097.15,386.31 1099.76,387.12 L1104.5,388.59 L1105,397.8 Z M588.6,853.39 C584.57,856.47 581.06,859 580.8,859 C580.53,859 579.15,857.35 577.71,855.33 L575.1,851.67 L581.8,846.38 C585.49,843.47 589.01,841.07 589.63,841.04 C590.25,841.02 591.93,842.52 593.35,844.39 L595.93,847.78 L588.6,853.39 Z M873.65,860.33 C869.33,862.35 865.25,864 864.58,864 C863.44,864 859.53,857.14 860.26,856.41 C860.92,855.75 876.12,849 876.96,849 C877.78,849 882.36,856.06 881.79,856.45 C881.63,856.56 877.97,858.31 873.65,860.33 Z M915.23,827.75 L917.83,830.5 L911.09,838.08 L904.35,845.66 L901.03,842.89 L897.72,840.12 L904.48,832.56 C908.2,828.4 911.56,825 911.94,825 C912.32,825 913.8,826.24 915.23,827.75 Z M61.51,835.94 L60.81,841 L45,841 L45,831.26 L53.25,830.76 C57.79,830.48 61.66,830.4 61.85,830.56 C62.05,830.73 61.89,833.15 61.51,835.94 Z M436.72,59.43 L437.77,62.86 L427.84,66.87 L417.91,70.89 L416.92,68.3 C416.38,66.88 415.71,65.34 415.43,64.89 C415.15,64.43 416.62,63.32 418.71,62.42 C425.25,59.58 434.35,56 435.02,56 C435.38,56 436.14,57.54 436.72,59.43 Z M536.75,66.75 C534.04,70.19 531.75,73 531.66,72.9900266 C531.57,72.98 530.04,71.83 528.26,70.43 L525.03,67.87 L530.7,60.53 L536.38,53.19 L539.68,55.71 C541.06,56.76 541.93,57.37 542.15,58.16 C542.5,59.45 541.12,61.2 537.31,66.03 C537.13,66.26 536.94,66.5 536.75,66.75 Z M184.990009,453.85 C184.98,454.76 183.97,457.64 182.74,460.25 L180.5,465 L175.27,461.99 L170.03,458.98 L172.75,453.24 C174.25,450.08 175.56,447.35 175.66,447.16 C176.21,446.15 185,452.45 184.990009,453.85 Z M777.36,70.78 C777.01,73.68 776.44,76.21 776.11,76.39 C774.64,77.21 767,73.73 767,72.25 C767,67.58 769.33,57.95 770.36,58.39 C770.99,58.65 773.22,59.43 775.32,60.11 C778.47,61.14 779.04,61.72 778.57,63.43 C778.26,64.57 777.72,67.88 777.36,70.78 Z M130,247.25 C130,248.04 128.63,248.06 125.74,247.31 C124.77,247.06 124.24,246.43 124.55,245.92 C124.87,245.4 124.83,244.04 124.46,242.89 C123.94,241.23 123.23,240.9 121.06,241.34 C118.5,241.85 118.22,241.55 116.66,236.6 C114.13,228.55 114.28,228.1 119.25,228.72 C121.59,229.01 123.78,229.53 124.13,229.88 C124.78,230.53 130,245.96 130,247.25 Z M1157.94,755.08 C1156.6,756.11 1155.05,756.95 1154.5,756.95 C1153.95,756.95 1151.14,753.5 1148.25,749.28 L1143,741.6 L1146.02,739.69 C1149.72,737.35 1150.3,737.74 1156.1,746.66 L1160.37,753.21 L1157.94,755.08 Z M1030.25,600.06 C1028.74,600.82 1027.18,601.6 1026.78,601.79 C1026.14,602.1 1017,588.9 1017,587.67 C1017,587.41 1018.55,586.28 1020.45,585.16 L1023.9,583.13 L1028.45,590.24 C1030.95,594.15 1033,597.65 1033,598.02 C1033,598.38 1031.76,599.3 1030.25,600.06 Z M447.71,837.98 C444.04,839.64 440.79,841 440.47,841 C439.75,841 436.75,833.92 437.25,833.42 C437.99,832.68 451.22,826.89 451.48,827.19 C452.42,828.29 455.08,834.26 454.76,834.57 C454.55,834.78 451.38,836.31 447.71,837.98 Z M810,859.32 C810,859.69 808.06,860 805.7,860 L801.39,860 L799.2,853.18 C797.99,849.43 797,846.05 797,845.68 C797,845.31 798.94,845 801.3,845 L805.61,845 L807.8,851.82 C809.01,855.57 810,858.95 810,859.32 Z M502,40.15 C502,42.2 501.88,42.22 497.25,40.88 C494.03,39.95 494,39.89 494.02,33.72 C494.04,25.65 494.7,24.67 499.48,25.56 L503.26,26.27 L502.63,32.28 C502.28,35.59 502,39.13 502,40.15 Z M86.54,856.06 C86.84,856.55 86.28,858.7 85.3,860.82 L83.5,864.67 L79.5,862.31 C77.3,861.01 74.85,859.55 74.05,859.07 C72.81,858.32 72.87,857.62 74.45,854.1 C75.47,851.85 76.4,850 76.53,850 C77.29,850 86.08,855.32 86.54,856.06 Z M334.52,799.31 C333.67,801.34 332.64,802.97 332.24,802.93 C331.49,802.85 326.43,799.77 325.46,798.79 C324.99,798.33 328.57,788.1 329.53,787.14 C329.73,786.94 331.53,787.78 333.52,789.01 C337.46,791.45 337.52,792.11 334.52,799.31 Z M1131,714.99 C1131,715.42 1129.96,716.45 1128.69,717.29 C1126.46,718.75 1126.13,718.56 1119.64,712.23 C1112.91,705.67 1112.9,705.65 1114.89,703.67 C1116.87,701.69 1116.89,701.7 1123.94,707.94 C1127.82,711.39 1131,714.56 1131,714.99 Z M205.08,27 C204.58,27 203.4,27.29 202.47,27.65 C200.98,28.22 200.86,27.79 201.47,24.15 C202.14,20.2 202.05,20 199.67,20 C197.68,20 197.02,19.36 196.48,16.9 C195.63,13.06 196.39,12.28 201.75,11.42 L206,10.74 L206,18.87 C206,23.34 205.59,27 205.08,27 Z M1004.26,692.75 C1002.74,693.98 1001.28,694.99 1001,694.99 C1000.72,694.99 999.49,693.5 998.25,691.68 C996.52,689.13 996,686.96 996,682.19 C996,678.78 996.34,676.01 996.75,676.019973 C997.16,676.03 999.64,679.29 1002.26,683.27 L1007.01,690.5 L1004.26,692.75 Z M1043.63,540.94 C1039.88,542.62 1036.7,544 1036.57,544 C1036.27,544 1034,539.1 1034,538.46 C1034,537.96 1046.89,532 1047.98,532 C1048.74,532 1051.27,537.06 1050.76,537.57 C1050.59,537.74 1047.38,539.26 1043.63,540.94 Z M1063.53,27.61 C1062.48,28.37 1061.14,28.99 1060.56,28.99 C1059.54,28.98 1052.49,17.12 1053.17,16.55 C1054.85,15.13 1058.37,13.98 1058.97,14.66 C1059.38,15.12 1061.01,17.91 1062.58,20.86 C1065.35,26.06 1065.38,26.25 1063.53,27.61 Z M153.36,620.06 C150.87,621.13 148.67,622 148.48,622 C147.72,622 147.18,620.37 146.85,617.03 C146.52,613.74 146.73,613.47 151.24,611.61 C153.84,610.52 156.14,609.83 156.35,610.07 C156.55,610.31 156.98,612.21 157.31,614.31 C157.88,618.05 157.81,618.15 153.36,620.06 Z M0,294.97 L0,286.77 L5.5,289 C10.88,291.18 11,291.32 11,295.23 C11,299.65 10.88,299.68 3.75,296.6 L0,294.97 Z M1086,760 L1086,768 L1075,768 L1075,760 L1086,760 Z M882.18,58.71 C880.71,59.93 879.2,60.94 878.84,60.96 C878.47,60.98 876.78,59.1 875.07,56.79 L871.97,52.57 L874.54,50.04 L877.11,47.5 L884.86,56.5 L882.18,58.71 Z M642.31,840.67 C639.11,842.49 636.21,843.98 635.86,843.99 C635.52,843.99 634.53,842.93 633.67,841.61 C632.12,839.25 632.17,839.19 638.22,835.96 L644.34,832.7 L646.23,835.03 L648.11,837.36 L642.31,840.67 Z M459.9,780.85 C458.66,784.41 458.46,784.48 455,782.5 C453.62,781.71 451.71,781.05 450.75,781.04 C448.6,780.99 448.55,779.78 450.53,775.95 C451.33,774.4 451.69,773.56 452.3,773.29 C452.97,772.99 453.94,773.39 456.15,774.28 C456.41,774.38 456.69,774.49 456.98,774.61 C461.44,776.39 461.45,776.41 459.9,780.85 Z M1150.37,244.75 C1151.01,248.89 1150.95,249 1148.26,248.94 C1143.75,248.83 1141.01,247.28 1140.92,244.78 C1140.88,243.53 1140.69,241.66 1140.49,240.62 C1140.18,238.94 1140.61,238.81 1144.74,239.38 C1147.27,239.72 1149.43,240.12 1149.53,240.25 C1149.64,240.39 1150.01,242.41 1150.37,244.75 Z M348.93,862.69 C351.98,866.74 352.02,866.92 350.1,867.95 C349.59,868.22 349.21,868.44 348.83,868.47 C347.65,868.53 346.36,866.73 340.73,858.84 L340.18,858.06 C337.83,854.77 337.33,853.41 338.25,852.82 C340.5,851.39 341.77,851.95 343.79,855.25 C344.88,857.04 347.19,860.39 348.93,862.69 Z M104.63,524.56 C103.52,528.97 103.06,529.53 100.4,529.8 C97.16,530.12 95.93,529.44 96.52,527.65 C96.73,527.02 97.39,524.59 97.99,522.25 C98.96,518.48 99.4,518 101.98,518 C105.82,518 106.12,518.73 104.63,524.56 Z M1019.27,369.66 C1017.75,370.91 1016.28,371.94 1016,371.96 C1015.23,372.02 1010,365.23 1010,364.17 C1010,363.65 1011.21,362.43 1012.7,361.46 L1015.4,359.69 L1018.72,363.54 L1022.05,367.39 L1019.27,369.66 Z M734,843.02 C731.6,844.54 731.28,844.31 727.03,838.04 C722.99,832.09 722.99,832.08 725.18,830.91 C727.1,829.88 727.66,830.09 729.64,832.58 C730.89,834.14 732.72,836.92 733.7,838.75 C735.28,841.67 735.31,842.19 734,843.02 Z M1131.8,396.85 C1132.7,397.43 1133.01,399.65 1132.8,404.11 C1132.53,409.92 1132.31,410.5 1130.5,410.15 C1127.61,409.6 1127.03,408.2 1127.02,401.75 C1127,396.93 1127.28,396 1128.75,396.02 C1129.71,396.02 1131.08,396.4 1131.8,396.85 Z M341.36,61.25 C340.69,65.32 339.6,65.81 336.32,63.51 C334.54,62.26 334.27,61.32 334.72,57.76 C335.4,52.32 336.09,51.63 339.35,53.11 C342.15,54.39 342.35,55.23 341.36,61.25 Z M1172.54,563.17 C1173.84,569.42 1173.7,569.8 1170.34,569.24 C1168.09,568.87 1167.6,567.69 1166.46,559.75 C1165.83,555.4 1165.95,555 1167.83,555 C1170.45,555 1171.04,556.03 1172.54,563.17 Z M1138.96,136.07 C1138.4,137.13 1137.61,137.98 1137.21,137.96 C1136.56,137.92 1130.96,135.13 1130.16,134.44 C1129.66,134.02 1132.3,127 1132.95,127 C1133.25,127.01 1134.96,127.9 1136.75,128.99 C1140.15,131.06 1140.7,132.82 1138.96,136.07 Z M1013.38,716.88 C1012.67,720.42 1012.52,720.47 1008.75,718.43 C1006.38,717.14 1006,716.31 1006,712.47 C1006,707.59 1006.62,707.23 1011.05,709.53 C1014.16,711.13 1014.38,711.84 1013.38,716.88 Z M1017,679.37 C1017,679.71 1015.27,680 1013.16,680 C1009.56,680 1009.24,679.75 1008.16,676.13 L1008.05,675.77 C1007.28,673.21 1006.92,672.02 1007.36,671.47 C1007.74,671 1008.72,671 1010.54,671 L1010.84,671 C1014.44,671 1014.76,671.25 1015.84,674.87 C1016.48,676.99 1017,679.02 1017,679.37 Z M1039.34,479.96 C1039.81,480.42 1039.81,483.01 1039.34,485.74 C1038.52,490.59 1038.45,490.67 1035.75,489.76 C1033.19,488.9 1033,488.44 1033,483.31 L1033,477.78 L1035.75,478.46 C1037.26,478.84 1038.88,479.51 1039.34,479.96 Z M28,446.55 C28,449.48 27.66,449.99 25.75,449.94 C22.43,449.84 19,448.25 18.99,446.78 C18.98,446.08 18.7,444.49 18.37,443.25 C17.68,440.67 18.59,440.48 24.25,442.05 C27.66,443 28,443.41 28,446.55 Z M84.81,325.51 C84.64,325.68 82.82,326.14 80.76,326.52 C76.86,327.25 76.77,327.17 75.68,322.25 C75.1,319.62 75.36,319.4 80.13,318.5 C83.67,317.84 83.76,317.9 84.44,321.51 C84.82,323.54 84.99,325.34 84.81,325.51 Z M813.41,23.32 C810.98,26.65 809.98,26.64 806.76,23.25 L804.15,20.5 L806.33,17.81 L808.5,15.12 L811.91,17.91 L815.32,20.71 L813.41,23.32 Z M995,794.93 C995,798.18 993.65,798.04 987.72,794.19 C983.16,791.22 982.16,790.11 982.65,788.5 C982.98,787.4 983.38,786.35 983.54,786.17 C983.7,785.98 986.35,787.44 989.42,789.4 C993.07,791.74 995,793.65 995,794.93 Z M891.99,96.03 L897.47,100 L890.4,100 C886.52,100 883.06,99.73 882.73,99.4 C882.08,98.74 885.02,91.98 885.94,92.03 C886.25,92.05 888.97,93.85 891.99,96.03 Z M1043.2,330.09 C1042.96,331.7 1042.48,333.19 1042.13,333.39 C1041.79,333.59 1039.39,333.13 1036.81,332.36 C1032.15,330.98 1032.12,330.95 1033.18,327.93 C1033.82,326.07 1034.75,325.07 1035.55,325.38 C1036.27,325.66 1038.38,326.17 1040.24,326.52 C1043.32,327.09 1043.59,327.43 1043.2,330.09 Z M1112.98,306.01 C1110.12,307.54 1109.66,307.24 1107.26,302.2 C1105.18,297.84 1105.14,297.41 1106.7,296.25 C1109.51,294.16 1110.51,294.79 1112.72,300.01 C1114.76,304.85 1114.77,305.05 1112.98,306.01 Z M636.93,777.49 C636.89,778.05 636.55,779.29 636.17,780.25 C635.55,781.81 634.9,781.62 630.25,778.48 C626.16,775.73 625.09,774.47 625.36,772.73 C625.55,771.5 626.1,770.51 626.6,770.519925 C628.25,770.57 637,776.47 636.93,777.49 Z M1070.81,591.97 C1066.55,594.57 1066.33,594.54 1064.58,591.15 C1063.13,588.34 1063.16,588.28 1067.14,586.04 C1071.32,583.69 1072.31,583.96 1073.45,587.73 C1073.99,589.53 1073.48,590.34 1070.81,591.97 Z M91.86,22.43 C91.66,22.61 90.51,23.06 89.3,23.43 C87.35,24.03 86.94,23.53 85.55,18.86 C84.32,14.71 84.26,13.46 85.25,12.83 C88.29,10.89 89.8,12 91.01,17.05 C91.68,19.83 92.06,22.25 91.86,22.43 Z M825.57,802.59 C824.65,808.04 823.94,808.91 821.25,807.91 C820.26,807.54 819.66,807.38 819.36,806.99 C818.92,806.41 819.16,805.31 819.83,802.23 C819.91,801.87 819.99,801.47 820.08,801.05 C821.25,795.63 821.64,795.29 824.43,797.32 C825.87,798.38 826.1,799.43 825.57,802.59 Z M79.54,126.38 C79.45,126.44 79.37,126.49 79.29,126.55 C77.88,127.47 77.18,127.93 76.6,127.81 C75.99,127.68 75.52,126.92 74.51,125.38 C72.84,122.83 72.86,122.68 75.34,120.2 L77.9,117.65 L79.91,120.07 C82.57,123.27 82.5,124.44 79.54,126.38 Z M768.51,775.02 C771.8,781.38 769.61,781.19 763.03,774.54 C758.1,769.56 757.03,768 758.53,768 C761.63,768.01 766.75,771.61 768.51,775.02 Z M1018.4,557.16 C1017.86,558.04 1017.56,558.05 1014.85,557.33 C1013.23,556.9 1012.04,554.15 1012.01,550.75 C1012,549.56 1012.78,549 1014.45,549 C1016.43,549 1017.1,549.72 1017.92,552.66 C1018.47,554.67 1018.69,556.69 1018.4,557.16 Z M177.75,523.37 C173.75,524.44 173,524.08 173,521.1 C173,518.74 173.59,517.99 176.15,517.1 C177.88,516.49 179.46,516 179.65,516 C179.84,516 180,517.52 180,519.38 C180,522.05 179.52,522.9 177.75,523.37 Z M842,821.2 C842,822.57 841.21,823 838.67,823 C834.72,823 834,822.44 834,819.33 C834,817.44 834.53,817 836.8,817 C840.02,817 842,818.6 842,821.2 Z M185,598.57 C185,600.46 184.89,601.96 184.75,601.92 C180.76,600.66 179,599.51 179.02,598.17 C179.04,595.24 180.61,593.74 182.88,594.46 C184.5,594.98 185,595.95 185,598.57 Z M34,708.43 C34,710.77 30.35,710.33 28.56,707.78 C26.33,704.6 26.63,703 29.46,703 C31.95,703 34,705.46 34,708.43 Z M1002,713.11 C1002,715.19 1000.44,715.49 997.75,713.92 C995.65,712.7 995.42,710 997.42,710 C1000.18,710 1002,711.24 1002,713.11 Z M1000.96,215.25 C1001.02,216.35 1000.63,216.19 998.57,214.25 C997.55,213.29 997.03,213.06 997.42,213.75 C997.8,214.44 997.64,215 997.06,215 C996.48,215 996,213.54 996,211.75 L996.01,208.5 L998.47,211.5 C999.82,213.15 1000.94,214.84 1000.96,215.25 Z M777.5,785 C776.5,786.1 775.6,787 775.5,787 C775.4,787 774.5,786.1 773.5,785 C771.72,783.03 771.75,783 775.5,783 C779.25,783 779.28,783.03 777.5,785 Z M943.1,706.93 C940.05,709.1 937.45,709.71 938.5,708 C938.84,707.45 939.56,707 940.11,707 C940.65,707 942.19,705.76 943.52,704.25 C945.38,702.14 945.94,701.89 945.97,703.18 C945.99,704.11 944.69,705.79 943.1,706.93 Z"/><path fill="#3A7D9F" fill-rule="nonzero" d="M366.13,811.74 C365.17,813.2 360,814.23 360,812.96 C360,812.37 359.55,812.16 359,812.5 C358.45,812.84 358,812.23 358,811.14 C358,810.06 357.53,809.01 356.95,808.82 C355.77,808.42 353.93,801.4 354.78,800.55 C355.09,800.25 356.16,800 357.17,800 C358.27,800 359,799.28 359,798.19 C359,797.2 359.58,795.59 360.29,794.62 C361.4,793.1 361.96,793.03 364.29,794.09 C366.43,795.06 367,796.01 367,798.58 L367,801.84 L373.55,802.54 C377.15,802.93 380.75,803.9 381.55,804.69 C383.22,806.37 383.5,811.58 381.96,812.52 C381.39,812.88 377.73,812.63 373.84,811.97 C369.38,811.22 366.52,811.13 366.13,811.74 Z M1098.4,112.15 C1097.69,113.31 1097.68,113.31 1081.17,108.32 L1071.84,105.5 L1072.47,101.5 C1072.82,99.3 1073.49,97.11 1073.96,96.64 C1074.44,96.16 1080.42,97.46 1087.51,99.6 L1100.19,103.42 L1099.56,107.37 C1099.21,109.53 1098.69,111.69 1098.4,112.15 Z M73.26,38.5 L73.5,44.5 L68.88,44.8 C65.5,45.02 64.1,44.7 63.68,43.61 C63.37,42.79 62.81,37.26 62.45,31.31 C62.08,25.36 61.72,20.05 61.64,19.5 C61.56,18.95 63.82,18.37 66.66,18.2 L71.82,17.9 L72.42,25.2 C72.75,29.22 73.12,35.2 73.26,38.5 Z M1038.2,226.31 C1036.65,227.79 1035.14,229 1034.84,229 C1034.53,229 1030.59,225.51 1026.08,221.25 L1017.87,213.5 L1021.01,209.74 L1024.15,205.99 L1032.58,213.66 C1037.21,217.87 1041,221.84 1041,222.48 C1041,223.11 1039.74,224.84 1038.2,226.31 Z M0,827.27 L0,816.7 L6.75,818.46 C18.8,821.6 21.66,822.23 22.36,823.81 C22.57,824.3 22.58,824.88 22.59,825.66 C22.59,825.85 22.6,826.06 22.6,826.28 C22.79,832.6 22.29,832.74 10.55,829.86 L0,827.27 Z M182.95,285.56 C182.24,286.41 180.9,287.52 179.96,288.02 C177.88,289.13 176.86,288.06 170.96,278.63 L166.67,271.76 L169.97,268.88 C173.23,266.03 176.38,265.18 177.42,266.87 C177.72,267.35 179.26,268 180.85,268.32 C182.44,268.64 184.01,269.58 184.33,270.42 C185.19,272.65 182.22,275.2 179.69,274.4 C177.65,273.75 177.64,273.81 179.3,276.37 C180.23,277.82 181.73,280.13 182.62,281.51 C183.95,283.57 184.01,284.28 182.95,285.56 Z M796.51,825.25 C794.19,825.51 788.46,825.81 783.78,825.91 L775.27,826.1 L774.62,822.85 C774.2,820.76 774.42,819.18 775.24,818.42 C776.76,817.01 795.94,815.69 797.82,816.88 C798.55,817.33 799.5,819.3 799.94,821.24 L800.74,824.77 L796.51,825.25 Z M38,671.5 C38,675.95 37.36,675.92 24.36,670.74 L14.23,666.7 L14.75,662.6 C15.04,660.35 15.34,658.41 15.42,658.3 C15.77,657.83 37.61,666.57 37.8,667.25 C37.91,667.66 38,669.58 38,671.5 Z M820.32,818.43 C816.02,818.77 811.04,819.24 809.25,819.46 C806.4,819.82 805.94,819.55 805.42,817.19 C805.1,815.71 804.67,813.97 804.47,813.32 C804.08,812.01 806.37,811.43 815.81,810.45 C821.74,809.83 822.02,809.68 820.54,808.04 C820.36,807.85 820.21,807.66 820.07,807.47 C820.38,807.6 820.77,807.73 821.25,807.91 C823.87,808.89 824.61,808.08 825.5,802.97 L825.48,803.11 C825.03,806.42 825.2,808.54 826.01,809.51 C826.67,810.31 827.42,812.51 827.68,814.39 L828.14,817.82 L820.32,818.43 Z M80.8,231.25 L81.11,236 L71.72,236 C66.56,236 62.03,235.7 61.67,235.33 C61.3,234.97 61,232.7 61,230.3 L61,225.93 L80.5,226.5 L80.8,231.25 Z M606.05,829 C605.66,830.38 604.7,831.6 603.92,831.72 C602.73,831.91 597,829.42 597,828.72 C597,827.55 600.04,813.06 600.58,811.65 C601.14,810.2 601.94,809.94 604.38,810.43 C606.08,810.77 608.12,811.69 608.91,812.48 C609.17,812.74 609.39,812.95 609.55,813.19 C610.26,814.29 609.71,816.19 606.36,827.92 L606.05,829 Z M853.31,807.75 C849.94,810.09 846.68,812 846.08,812 C845.14,812 840.66,805.87 841.29,805.45 C841.4,805.38 845.22,802.75 849.77,799.61 C854.31,796.47 858.48,794.18 859.02,794.51 C859.57,794.85 860.66,796.37 861.45,797.89 C861.49,797.98 861.53,798.07 861.58,798.15 C862.02,799 862.33,799.6 862.31,800.18 C862.26,801.61 860.22,802.96 853.31,807.75 Z M614.69,36.12 C611.29,39.9 608.22,42.98 607.88,42.9900712 C606.63,43.01 602,38.81 602,37.65 C602,36.99 604.92,33.55 608.48,30.02 L614.97,23.59 L617.93,26.43 L620.89,29.27 L614.69,36.12 Z M126.59,344.26 C125.88,347.98 125.13,351.14 124.9,351.27 C124.03,351.81 117.44,350.78 116.45,349.96 C115.7,349.34 115.73,347.06 116.52,342.29 L117.66,335.5 L122.07,335.8 C124.5,335.96 126.8,336.41 127.18,336.8 C127.56,337.18 127.29,340.54 126.59,344.26 Z M121.72,101.83 C118.75,104.12 115.88,106 115.34,106 C114.28,106 109,100.78 109,99.73 C109,99.36 111.5,97.17 114.56,94.86 L120.13,90.66 L127.13,97.66 L121.72,101.83 Z M1000.96,215.25 C1000.94,214.84 999.82,213.15 998.47,211.5 L997.34,210.13 C998.37,210.8 1000.29,212.96 1004,217.32 C1008.12,222.18 1011.5,226.65 1011.5,227.27 C1011.5,227.88 1010.11,229.2 1008.42,230.19 L1005.34,231.98 L1001.22,226.92 C997.45,222.28 995.68,217.31 996.02,212.27 C996.1,213.81 996.53,215 997.06,215 C997.64,215 997.8,214.44 997.42,213.75 C997.03,213.06 997.55,213.29 998.57,214.25 C1000.63,216.19 1001.02,216.35 1000.96,215.25 Z M363.13,842.69 C363.69,843.34 364,845.05 363.82,846.47 L363.5,849.07 L352.5,842.77 C343.61,837.68 341.57,836.09 341.85,834.49 C342.03,833.39 342.41,832.28 342.67,832.01 C343.26,831.4 361.73,841.04 363.13,842.69 Z M1014.96,792.68 C1013.45,793.96 1011.82,795 1011.34,795 C1010.49,795 1002.69,785.7 1002.31,784.23 C1002.2,783.83 1003.43,782.46 1005.04,781.19 L1007.96,778.88 L1010.9,782.24 C1012.52,784.08 1014.72,786.67 1015.78,787.98 L1017.72,790.37 L1014.96,792.68 Z M1168.42,854.75 C1167.03,855.99 1165.3,857 1164.58,857 C1163.86,857 1161.46,854.68 1159.25,851.84 L1155.23,846.68 L1158.25,844.14 L1161.26,841.6 L1166.11,847.05 L1170.95,852.5 L1168.42,854.75 Z M1021.77,759.6 C1021.97,761.07 1020.34,762.33 1014.63,765.13 C1010.55,767.12 1006.79,768.47 1006.26,768.13 C1005.73,767.78 1004.76,766.47 1004.09,765.21 C1002.94,763.02 1003.21,762.77 1010.64,759.34 C1018.75,755.59 1021.21,755.65 1021.77,759.6 Z M869.38,20.88 C868.83,23.61 868.36,23.99 865.62,23.88 C863.91,23.82 861.15,23.46 859.5,23.09 C856.26,22.37 855.96,20.88 857.97,15.57 C858.95,13.01 859.34,12.84 862.77,13.45 C867.01,14.2 868.95,14.54 869.64,15.66 C870.23,16.6 869.93,18.09 869.38,20.85 L869.38,20.88 Z M297.69,848.83 C294.59,851.74 294.01,851.62 289.7,847.21 C285.36,842.76 285.24,842.06 288.31,839.17 C291.41,836.26 291.99,836.38 296.3,840.79 C300.64,845.24 300.76,845.94 297.69,848.83 Z M283.62,81.05 C283.53,82.9 282.87,83.57 280.92,83.8 C278.89,84.04 277.77,83.27 275.629994,80.18 C274.129994,78.03 271.86,75.28 270.57,74.06 C266.48,70.22 269.49,65.88 273.75,69.48 C281.12,75.72 283.74,78.78 283.62,81.05 Z M1102.25,83.77 C1100.19,86.61 1098.28,88.93 1098,88.9200322 C1096.81,88.86 1093,85.66 1093,84.72 C1093,84.15 1094.82,81.27 1097.04,78.33 L1101.09,72.97 L1103.51,74.74 C1104.85,75.71 1105.95,76.97 1105.97,77.55 C1105.99,78.12 1104.31,80.92 1102.25,83.77 Z M0,414.93 L0,401.96 L4,404 C6.2,405.12 8,406.44 8,406.94 C8,407.43 7.11,409.92 6.02,412.46 C4.24,416.6 3.82,416.97 2.02,416.01 L0,414.93 Z M113.83,454.6 C113.51,457.45 113.37,457.51 106.25,458 L99,458.5 L99,455.75 C99,453.57 99.46,453 101.25,452.99 C102.49,452.99 105.9,452.69 108.83,452.34 L114.16,451.7 L113.83,454.6 Z M416.69,815.21 C414.84,816.39 411.98,816.13 411.52,814.75 C409.39,808.4 408.93,804.66 410.17,803.85 C413.39,801.76 415.43,803.37 416.67,808.98 C417.61,813.21 417.62,814.62 416.69,815.21 Z M636.93,777.49 C637,776.47 628.25,770.57 626.6,770.52 C626.19,770.51 625.74,771.19 625.49,772.12 C625.99,770.02 626.96,769.72 628.62,771.1 C630.11,772.34 630.21,772.25 629.58,770.24 C628.95,768.27 629.22,768 631.74,768 C635.23,768 637.19,769.43 639.83,773.88 C642.18,777.84 641.7,780 638.48,780 C637.21,780 636.02,780.45 635.83,781.01 C635.8,781.11 635.68,781.16 635.5,781.15 C635.79,781.03 635.98,780.72 636.17,780.25 C636.55,779.29 636.89,778.05 636.93,777.49 Z M155,174.04 C155,175.67 154.89,176.96 154.75,176.92 C154.61,176.88 154.05,176.68 153.5,176.47 C152.95,176.27 149.91,175.37 146.75,174.48 C141.67,173.05 141,172.56 141,170.3 C141,167.96 141.27,167.8 144.2,168.39 C153.8,170.31 155,170.94 155,174.04 Z M1015.33,846.19 C1014.43,847.19 1013.42,847.99 1013.1,847.980093 C1012.77,847.980093 1010.52,846.23 1008.09,844.11 C1005.03,841.43 1003.88,839.75 1004.32,838.6 C1005.62,835.21 1008.06,835.64 1012.56,840.06 C1016.7,844.12 1016.86,844.49 1015.33,846.19 Z M1114.25,691.85 C1107.71,695.15 1106.24,695.33 1104.98,692.96 C1104.91,692.83 1104.84,692.7 1104.78,692.58 C1104.38,691.86 1104.12,691.39 1104.19,690.97 C1104.34,690.15 1105.78,689.54 1110.03,687.57 C1115.09,685.21 1115.59,685.15 1116.75,686.7 C1118.62,689.22 1118.34,689.79 1114.25,691.85 Z M198.31,826.63 C195.33,829.07 191.55,829.7 190.46,827.94 C189.25,825.98 190.9,822.49 193.86,820.74 C197.78,818.42 198.46,818.53 199.89,821.67 C201,824.09 200.85,824.55 198.31,826.63 Z M1069,168 C1069,170.96 1068.93,171 1063.67,171 C1057.9,171 1057,170.59 1057,167.94 C1057,165.77 1058.98,165 1064.58,165 C1068.82,165 1069,165.12 1069,168 Z M69.47,509.05 C67.74,512.41 67.51,512.47 63.74,510.42 C61.01,508.94 61,508.89 62.62,505.71 C63.52,503.95 64.38,502.35 64.53,502.18 C64.92,501.73 71,504.93 71,505.58 C71,505.86 70.31,507.43 69.47,509.05 Z M37.52,294.97 C35.52,298.83 34.97,299.06 31.75,297.37 C28.55,295.7 28.36,294.39 30.86,291.14 C32.62,288.85 32.77,288.83 35.85,290.42 C38.95,292.03 38.99,292.12 37.52,294.97 Z M574.02,96.47 C572.02,98.89 570.37,98.29 568.01,94.28 L565.81,90.57 L568.01,88.79 C570.64,86.66 570.96,86.81 573.39,91.39 C574.94,94.3 575.06,95.23 574.02,96.47 Z M1138.85,617.35 C1138.66,617.47 1137.82,618.07 1137,618.69 C1135.79,619.59 1134.75,618.94 1131.6,615.31 C1128.49,611.73 1127.98,610.63 1129.1,609.92 C1129.87,609.43 1130.99,609.019962 1131.58,609.019962 C1132.64,609 1139.55,616.92 1138.85,617.35 Z M1168.02,228.48 C1165.16,231.53 1164.81,231.56 1162.47,228.96 C1160.66,226.97 1160.68,226.86 1163.31,224.24 L1165.99,221.55 L1168.19,223.75 L1170.4,225.95 L1168.02,228.48 Z M339.4,775.13 C339.2,775.48 338.1,776 336.95,776.3 C334.54,776.93 333.71,775.43 334.18,771.33 C334.45,768.93 335.01,768.45 337.84,768.18 C341.15,767.86 341.18,767.9 340.48,771.18 C340.09,773.01 339.6,774.78 339.4,775.13 Z M0,788.14 L0,774.17 L6.42,783.12 L0,788.14 Z M136.8,600.25 C137.09,604.76 136.98,605 134.55,605 C132.12,605 131.99,604.75 132.24,600.25 C132.46,596.25 132.82,595.5 134.5,595.5 C136.18,595.5 136.55,596.27 136.8,600.25 Z M577,18.32 C577,18.69 575.92,19 574.6,19 C572.8,19 571.92,18.2 571.09,15.82 C569.97,12.61 570.77,11.06 573.55,11.0199445 C574.46,11 577,16.39 577,18.32 Z M140.39,740.58 C139.78,743.03 136.7,743.94 135.51,742.02 C134.81,740.88 136.26,737.86 138.33,736.14 C140.16,734.62 141.28,737.03 140.39,740.58 Z M455,82.5 C455,83.43 454.06,84 452.53,84 C450.75,84 450.22,83.58 450.64,82.5 C450.95,81.68 452.07,81 453.11,81 C454.15,81 455,81.68 455,82.5 Z M184.64,710.31 C184.93,710.6 184.98,711.88 184.75,713.16 L184.35,715.5 L183.3,713 C182.34,710.73 183.25,708.91 184.64,710.31 Z M68,536.5 C68,537.33 67.32,538 66.5,538 C65.68,538 65,537.33 65,536.5 C65,535.67 65.68,535 66.5,535 C67.32,535 68,535.67 68,536.5 Z M695.5,1 C695.16,1.55 694.46,2 693.94,2 C693.42,2 693,1.55 693,1 C693,0.45 693.7,0 694.56,0 C695.42,0 695.84,0.45 695.5,1 Z M825.78,799.38 C825.64,798.47 825.21,797.9 824.43,797.32 C824.24,797.19 824.06,797.06 823.89,796.94 L824.15,797.08 C825.21,797.65 825.69,798.14 825.78,799.38 Z M822.05,796.19 C821.21,796.35 820.79,797.77 820.08,801.05 C820.77,797.82 821.06,796.49 821.75,796.23 C821.84,796.2 821.94,796.19 822.05,796.19 Z M625.35,772.82 C625.28,773.31 625.33,773.77 625.53,774.23 C625.32,773.8 625.26,773.4 625.32,773.01 C625.33,772.94 625.34,772.88 625.35,772.82 Z"/><use xlink:href="#c" fill="#000"/><use xlink:href="#c" fill="#55AC69"/><g fill="#444" fill-rule="nonzero" transform="translate(363.57 160.474)"><polygon points="15.77 29.526 7.562 29.526 0 .532 5.738 .532 11.704 24.586 17.1 .532 24.054 .532 29.45 24.624 35.416 .532 41.154 .532 33.554 29.526 25.384 29.526 20.558 7.068"/><path d="M49.134 29.526 44.004 29.526 44.004 8.208 49.134 8.208 49.134 29.526ZM46.588 5.852C45.7013333 5.852 44.954 5.586 44.346 5.054 43.738 4.522 43.434 3.81266667 43.434 2.926 43.434 2.09 43.738 1.39333333 44.346.836 44.954.278666667 45.7013333 0 46.588 0 47.4493333 0 48.1903333.278666667 48.811.836 49.4316667 1.39333333 49.742 2.09 49.742 2.926 49.742 3.78733333 49.438 4.49033333 48.83 5.035 48.222 5.57966667 47.4746667 5.852 46.588 5.852ZM58.672 29.526C57.0506667 29.526 55.822 29.1523333 54.986 28.405 54.15 27.6576667 53.732 26.4733333 53.732 24.852L53.732.532 58.862.532 58.862 23.332C58.862 24.0413333 58.995 24.5416667 59.261 24.833 59.527 25.1243333 59.9766667 25.27 60.61 25.27L61.978 25.27 61.978 29.526 58.672 29.526ZM70.148 29.526C68.5266667 29.526 67.298 29.1523333 66.462 28.405 65.626 27.6576667 65.208 26.4733333 65.208 24.852L65.208.532 70.338.532 70.338 23.332C70.338 24.0413333 70.471 24.5416667 70.737 24.833 71.003 25.1243333 71.4526667 25.27 72.086 25.27L73.454 25.27 73.454 29.526 70.148 29.526ZM93.632 29.526C90.3133333 29.526 88.654 27.968 88.654 24.852L88.654 12.312 85.5 12.312 85.5 8.208 88.654 8.208 88.654.532 93.784.532 93.784 8.208 97.888 8.208 97.888 12.312 93.784 12.312 93.784 23.294C93.784 23.9526667 93.8916667 24.4466667 94.107 24.776 94.3223333 25.1053333 94.7973333 25.27 95.532 25.27L97.85 25.27 97.85 29.526 93.632 29.526ZM101.536 29.526 101.536.532 106.666.532 106.666 10.906C107.502 9.74066667 108.376 8.92366667 109.288 8.455 110.2 7.98633333 111.251333 7.752 112.442 7.752 115.786 7.752 118.002667 8.94266667 119.092 11.324 119.497333 12.16 119.750667 13.0086667 119.852 13.87 119.953333 14.7313333 120.004 15.8586667 120.004 17.252L120.004 29.526 114.874 29.526 114.874 17.176C114.874 16.0866667 114.791667 15.2063333 114.627 14.535 114.462333 13.8636667 114.202667 13.3253333 113.848 12.92 113.24 12.2866667 112.340667 11.97 111.15 11.97 109.680667 11.97 108.591333 12.4006667 107.882 13.262 107.451333 13.7686667 107.141 14.44 106.951 15.276 106.761 16.112 106.666 17.2393333 106.666 18.658L106.666 29.526 101.536 29.526ZM134.482 29.944C132.328667 29.944 130.428667 29.4753333 128.782 28.538 127.135333 27.6006667 125.862333 26.3023333 124.963 24.643 124.063667 22.9836667 123.614 21.1026667 123.614 19 123.614 17.0493333 124.013 15.219 124.811 13.509 125.609 11.799 126.812333 10.412 128.421 9.348 130.029667 8.284 131.999333 7.752 134.33 7.752 136.255333 7.752 138.028667 8.151 139.65 8.949 141.271333 9.747 142.576 10.9756667 143.564 12.635 144.552 14.2943333 145.046 16.3526667 145.046 18.81L145.046 19.912 128.934 19.912C129.01 20.7986667 129.276 21.6346667 129.732 22.42 130.238667 23.408 130.916333 24.1743333 131.765 24.719 132.613667 25.2636667 133.582667 25.536 134.672 25.536 135.837333 25.536 136.838 25.2383333 137.674 24.643 138.51 24.0476667 139.105333 23.2813333 139.46 22.344L144.704 22.344C144.02 24.5986667 142.816667 26.429 141.094 27.835 139.371333 29.241 137.167333 29.944 134.482 29.944ZM139.802 16.074C139.700667 15.2633333 139.434667 14.6046667 139.004 14.098 138.522667 13.3633333 137.889333 12.7996667 137.104 12.407 136.318667 12.0143333 135.444667 11.818 134.482 11.818 133.519333 11.818 132.651667 12.008 131.879 12.388 131.106333 12.768 130.479333 13.338 129.998 14.098 129.542 14.6553333 129.263333 15.314 129.162 16.074L139.802 16.074ZM148.808 29.526 148.808 8.208 153.938 8.208 153.938 10.754C154.723333 9.66466667 155.603667 8.892 156.579 8.436 157.554333 7.98 158.700667 7.752 160.018 7.752L160.626 7.752 160.626 12.692 159.448 12.692C157.826667 12.692 156.56 13.1226667 155.648 13.984 155.065333 14.5666667 154.634667 15.3076667 154.356 16.207 154.077333 17.1063333 153.938 18.2526667 153.938 19.646L153.938 29.526 148.808 29.526ZM173.356 29.944C171.202667 29.944 169.302667 29.4753333 167.656 28.538 166.009333 27.6006667 164.736333 26.3023333 163.837 24.643 162.937667 22.9836667 162.488 21.1026667 162.488 19 162.488 17.0493333 162.887 15.219 163.685 13.509 164.483 11.799 165.686333 10.412 167.295 9.348 168.903667 8.284 170.873333 7.752 173.204 7.752 175.129333 7.752 176.902667 8.151 178.524 8.949 180.145333 9.747 181.45 10.9756667 182.438 12.635 183.426 14.2943333 183.92 16.3526667 183.92 18.81L183.92 19.912 167.808 19.912C167.884 20.7986667 168.15 21.6346667 168.606 22.42 169.112667 23.408 169.790333 24.1743333 170.639 24.719 171.487667 25.2636667 172.456667 25.536 173.546 25.536 174.711333 25.536 175.712 25.2383333 176.548 24.643 177.384 24.0476667 177.979333 23.2813333 178.334 22.344L183.578 22.344C182.894 24.5986667 181.690667 26.429 179.968 27.835 178.245333 29.241 176.041333 29.944 173.356 29.944ZM178.676 16.074C178.574667 15.2633333 178.308667 14.6046667 177.878 14.098 177.396667 13.3633333 176.763333 12.7996667 175.978 12.407 175.192667 12.0143333 174.318667 11.818 173.356 11.818 172.393333 11.818 171.525667 12.008 170.753 12.388 169.980333 12.768 169.353333 13.338 168.872 14.098 168.416 14.6553333 168.137333 15.314 168.036 16.074L178.676 16.074ZM209.076 29.944C207.758667 29.944 206.631333 29.716 205.694 29.26 204.756667 28.804 203.87 27.9933333 203.034 26.828L203.034 29.526 197.904 29.526 197.904.532 203.034.532 203.034 10.906C203.844667 9.74066667 204.725 8.92366667 205.675 8.455 206.625 7.98633333 207.758667 7.752 209.076 7.752 210.925333 7.752 212.559333 8.22066667 213.978 9.158 215.396667 10.0953333 216.498667 11.4063333 217.284 13.091 218.069333 14.7756667 218.462 16.6946667 218.462 18.848 218.462 21.0013333 218.069333 22.9203333 217.284 24.605 216.498667 26.2896667 215.396667 27.6006667 213.978 28.538 212.559333 29.4753333 210.925333 29.944 209.076 29.944ZM207.898 25.536C209.519333 25.536 210.824 24.909 211.812 23.655 212.8 22.401 213.294 20.7986667 213.294 18.848 213.294 16.8973333 212.8 15.295 211.812 14.041 210.824 12.787 209.519333 12.16 207.898 12.16 206.276667 12.16 204.953 12.7806667 203.927 14.022 202.901 15.2633333 202.388 16.872 202.388 18.848 202.388 20.824 202.901 22.4326667 203.927 23.674 204.953 24.9153333 206.276667 25.536 207.898 25.536ZM232.294 29.944C230.140667 29.944 228.240667 29.4753333 226.594 28.538 224.947333 27.6006667 223.674333 26.3023333 222.775 24.643 221.875667 22.9836667 221.426 21.1026667 221.426 19 221.426 17.0493333 221.825 15.219 222.623 13.509 223.421 11.799 224.624333 10.412 226.233 9.348 227.841667 8.284 229.811333 7.752 232.142 7.752 234.067333 7.752 235.840667 8.151 237.462 8.949 239.083333 9.747 240.388 10.9756667 241.376 12.635 242.364 14.2943333 242.858 16.3526667 242.858 18.81L242.858 19.912 226.746 19.912C226.822 20.7986667 227.088 21.6346667 227.544 22.42 228.050667 23.408 228.728333 24.1743333 229.577 24.719 230.425667 25.2636667 231.394667 25.536 232.484 25.536 233.649333 25.536 234.65 25.2383333 235.486 24.643 236.322 24.0476667 236.917333 23.2813333 237.272 22.344L242.516 22.344C241.832 24.5986667 240.628667 26.429 238.906 27.835 237.183333 29.241 234.979333 29.944 232.294 29.944ZM237.614 16.074C237.512667 15.2633333 237.246667 14.6046667 236.816 14.098 236.334667 13.3633333 235.701333 12.7996667 234.916 12.407 234.130667 12.0143333 233.256667 11.818 232.294 11.818 231.331333 11.818 230.463667 12.008 229.691 12.388 228.918333 12.768 228.291333 13.338 227.81 14.098 227.354 14.6553333 227.075333 15.314 226.974 16.074L237.614 16.074ZM262.96 29.944C260.882667 29.944 259.198 29.393 257.906 28.291 256.614 27.189 255.968 25.65 255.968 23.674 255.968 21.546 256.778667 19.9246667 258.4 18.81 259.565333 17.9993333 261.224667 17.3913333 263.378 16.986L269.724 15.808C269.673333 14.4906667 269.331333 13.49 268.698 12.806 268.064667 12.122 267.114667 11.78 265.848 11.78 264.86 11.78 263.992333 12.0713333 263.245 12.654 262.497667 13.2366667 262.035333 14.022 261.858 15.01L256.766 15.01C257.120667 12.654 258.159333 10.8553333 259.882 9.614 261.604667 8.37266667 263.606 7.752 265.886 7.752 267.178 7.752 268.381333 7.93566667 269.496 8.303 270.610667 8.67033333 271.560667 9.20866667 272.346 9.918 273.131333 10.602 273.701333 11.4 274.056 12.312 274.410667 13.224 274.632333 14.136 274.721 15.048 274.809667 15.96 274.854 17.0873333 274.854 18.43L274.854 29.526 269.724 29.526 269.724 26.638C269.192 27.5753333 268.546 28.2846667 267.786 28.766 266.595333 29.5513333 264.986667 29.944 262.96 29.944ZM264.214 25.916C265.227333 25.916 266.139333 25.7133333 266.95 25.308 268.014 24.776 268.748667 24.0666667 269.154 23.18 269.559333 22.2933333 269.787333 21.09 269.838 19.57L264.746 20.596C263.378 20.8493333 262.39 21.2546667 261.782 21.812 261.326 22.268 261.098 22.8253333 261.098 23.484 261.098 24.2693333 261.383 24.871 261.953 25.289 262.523 25.707 263.276667 25.916 264.214 25.916ZM301.112 30.058C297.109333 30.058 294.158 29.0763333 292.258 27.113 290.358 25.1496667 289.408 22.4453333 289.408 19L289.408.532 294.918.532 294.918 19C294.918 20.9506667 295.399333 22.4643333 296.362 23.541 297.324667 24.6176667 298.908 25.156 301.112 25.156 303.316 25.156 304.899333 24.6176667 305.862 23.541 306.824667 22.4643333 307.306 20.9506667 307.306 19L307.306.532 312.816.532 312.816 19C312.816 22.4453333 311.859667 25.1496667 309.947 27.113 308.034333 29.0763333 305.089333 30.058 301.112 30.058ZM329.232 30.058C327.205333 30.058 325.267333 29.7286667 323.418 29.07 321.568667 28.4113333 320.004333 27.341 318.725 25.859 317.445667 24.377 316.692 22.458 316.464 20.102L322.126 20.102C322.556667 22.002 323.418 23.3573333 324.71 24.168 326.002 24.9786667 327.522 25.384 329.27 25.384 330.866 25.384 332.145333 25.0483333 333.108 24.377 334.070667 23.7056667 334.552 22.7113333 334.552 21.394 334.552 20.4566667 334.248 19.703 333.64 19.133 333.032 18.563 332.265667 18.1323333 331.341 17.841 330.416333 17.5496667 329.156 17.2266667 327.56 16.872 325.381333 16.3906667 323.627 15.8966667 322.297 15.39 320.967 14.8833333 319.820667 14.0853333 318.858 12.996 317.895333 11.9066667 317.414 10.412 317.414 8.512 317.414 6.688 317.857333 5.13633333 318.744 3.857 319.630667 2.57766667 320.846667 1.615 322.392.969 323.937333.323 325.698 0 327.674 0 329.599333 0 331.385333.335666667 333.032 1.007 334.678667 1.67833333 336.059333 2.70433333 337.174 4.085 338.288667 5.46566667 338.998 7.15666667 339.302 9.158L333.716 9.158C333.361333 7.66333333 332.633 6.54233333 331.531 5.795 330.429 5.04766667 329.105333 4.674 327.56 4.674 326.141333 4.674 325.001333 4.97166667 324.14 5.567 323.278667 6.16233333 322.848 6.992 322.848 8.056 322.848 8.892 323.139333 9.56333333 323.722 10.07 324.304667 10.5766667 325.026667 10.9693333 325.888 11.248 326.749333 11.5266667 327.952667 11.8433333 329.498 12.198 331.702 12.6793333 333.507 13.186 334.913 13.718 336.319 14.25 337.528667 15.1113333 338.542 16.302 339.555333 17.4926667 340.062 19.1013333 340.062 21.128 340.062 23.8893333 339.105667 26.068 337.193 27.664 335.280333 29.26 332.626667 30.058 329.232 30.058ZM1.748 76.526 1.748 55.208 6.878 55.208 6.878 57.754C7.66333333 56.6646667 8.54366667 55.892 9.519 55.436 10.4943333 54.98 11.6406667 54.752 12.958 54.752L13.566 54.752 13.566 59.692 12.388 59.692C10.7666667 59.692 9.5 60.1226667 8.588 60.984 8.00533333 61.5666667 7.57466667 62.3076667 7.296 63.207 7.01733333 64.1063333 6.878 65.2526667 6.878 66.646L6.878 76.526 1.748 76.526ZM26.296 76.944C24.1426667 76.944 22.2426667 76.4753333 20.596 75.538 18.9493333 74.6006667 17.6763333 73.3023333 16.777 71.643 15.8776667 69.9836667 15.428 68.1026667 15.428 66 15.428 64.0493333 15.827 62.219 16.625 60.509 17.423 58.799 18.6263333 57.412 20.235 56.348 21.8436667 55.284 23.8133333 54.752 26.144 54.752 28.0693333 54.752 29.8426667 55.151 31.464 55.949 33.0853333 56.747 34.39 57.9756667 35.378 59.635 36.366 61.2943333 36.86 63.3526667 36.86 65.81L36.86 66.912 20.748 66.912C20.824 67.7986667 21.09 68.6346667 21.546 69.42 22.0526667 70.408 22.7303333 71.1743333 23.579 71.719 24.4276667 72.2636667 25.3966667 72.536 26.486 72.536 27.6513333 72.536 28.652 72.2383333 29.488 71.643 30.324 71.0476667 30.9193333 70.2813333 31.274 69.344L36.518 69.344C35.834 71.5986667 34.6306667 73.429 32.908 74.835 31.1853333 76.241 28.9813333 76.944 26.296 76.944ZM31.616 63.074C31.5146667 62.2633333 31.2486667 61.6046667 30.818 61.098 30.3366667 60.3633333 29.7033333 59.7996667 28.918 59.407 28.1326667 59.0143333 27.2586667 58.818 26.296 58.818 25.3333333 58.818 24.4656667 59.008 23.693 59.388 22.9203333 59.768 22.2933333 60.338 21.812 61.098 21.356 61.6553333 21.0773333 62.314 20.976 63.074L31.616 63.074ZM50.578 76.944C48.45 76.944 46.569 76.4753333 44.935 75.538 43.301 74.6006667 42.028 73.2833333 41.116 71.586 40.204 69.8886667 39.748 67.938 39.748 65.734 39.748 63.606 40.204 61.706 41.116 60.034 42.028 58.362 43.301 57.0636667 44.935 56.139 46.569 55.2143333 48.45 54.752 50.578 54.752 53.1366667 54.752 55.309 55.4043333 57.095 56.709 58.881 58.0136667 60.04 59.7806667 60.572 62.01L54.986 62.01C54.6566667 61.022 54.112 60.262 53.352 59.73 52.592 59.198 51.6673333 58.932 50.578 58.932 48.906 58.932 47.557 59.5526667 46.531 60.794 45.505 62.0353333 44.992 63.682 44.992 65.734 44.992 67.862 45.505 69.5656667 46.531 70.845 47.557 72.1243333 48.906 72.764 50.578 72.764 51.794 72.764 52.782 72.4663333 53.542 71.871 54.302 71.2756667 54.8213333 70.4333333 55.1 69.344L60.648 69.344C60.1666667 71.7 59.014 73.5556667 57.19 74.911 55.366 76.2663333 53.162 76.944 50.578 76.944ZM74.214 76.944C72.0606667 76.944 70.1606667 76.4753333 68.514 75.538 66.8673333 74.6006667 65.5943333 73.3023333 64.695 71.643 63.7956667 69.9836667 63.346 68.1026667 63.346 66 63.346 64.0493333 63.745 62.219 64.543 60.509 65.341 58.799 66.5443333 57.412 68.153 56.348 69.7616667 55.284 71.7313333 54.752 74.062 54.752 75.9873333 54.752 77.7606667 55.151 79.382 55.949 81.0033333 56.747 82.308 57.9756667 83.296 59.635 84.284 61.2943333 84.778 63.3526667 84.778 65.81L84.778 66.912 68.666 66.912C68.742 67.7986667 69.008 68.6346667 69.464 69.42 69.9706667 70.408 70.6483333 71.1743333 71.497 71.719 72.3456667 72.2636667 73.3146667 72.536 74.404 72.536 75.5693333 72.536 76.57 72.2383333 77.406 71.643 78.242 71.0476667 78.8373333 70.2813333 79.192 69.344L84.436 69.344C83.752 71.5986667 82.5486667 73.429 80.826 74.835 79.1033333 76.241 76.8993333 76.944 74.214 76.944ZM79.534 63.074C79.4326667 62.2633333 79.1666667 61.6046667 78.736 61.098 78.2546667 60.3633333 77.6213333 59.7996667 76.836 59.407 76.0506667 59.0143333 75.1766667 58.818 74.214 58.818 73.2513333 58.818 72.3836667 59.008 71.611 59.388 70.8383333 59.768 70.2113333 60.338 69.73 61.098 69.274 61.6553333 68.9953333 62.314 68.894 63.074L79.534 63.074ZM97.774 76.944C95.1393333 76.944 92.8593333 76.3106667 90.934 75.044 89.0086667 73.7773333 87.8813333 71.8773333 87.552 69.344L92.606 69.344C92.9353333 70.484 93.5433333 71.3643333 94.43 71.985 95.3166667 72.6056667 96.4186667 72.916 97.736 72.916 98.8506667 72.916 99.7563333 72.7006667 100.453 72.27 101.149667 71.8393333 101.498 71.2313333 101.498 70.446 101.498 69.5846667 101.086333 68.964 100.263 68.584 99.4396667 68.204 98.1666667 67.8493333 96.444 67.52 94.7973333 67.1906667 93.4293333 66.836 92.34 66.456 91.2506667 66.076 90.326 65.4616667 89.566 64.613 88.806 63.7643333 88.426 62.6053333 88.426 61.136 88.426 59.0333333 89.205 57.4436667 90.763 56.367 92.321 55.2903333 94.2906667 54.752 96.672 54.752 99.18 54.752 101.263667 55.3853333 102.923 56.652 104.582333 57.9186667 105.602 59.7046667 105.982 62.01L101.156 62.01C100.877333 60.8953333 100.332667 60.0783333 99.522 59.559 98.7113333 59.0396667 97.7486667 58.78 96.634 58.78 95.6206667 58.78 94.8163333 58.9763333 94.221 59.369 93.6256667 59.7616667 93.328 60.2873333 93.328 60.946 93.328 61.7313333 93.7206667 62.2886667 94.506 62.618 95.2913333 62.9473333 96.5326667 63.2766667 98.23 63.606 99.978 63.9353333 101.403 64.2836667 102.505 64.651 103.607 65.0183333 104.557 65.6326667 105.355 66.494 106.153 67.3553333 106.552 68.546 106.552 70.066 106.552 72.1686667 105.773 73.8406667 104.215 75.082 102.657 76.3233333 100.51 76.944 97.774 76.944ZM119.662 76.944C117.027333 76.944 114.747333 76.3106667 112.822 75.044 110.896667 73.7773333 109.769333 71.8773333 109.44 69.344L114.494 69.344C114.823333 70.484 115.431333 71.3643333 116.318 71.985 117.204667 72.6056667 118.306667 72.916 119.624 72.916 120.738667 72.916 121.644333 72.7006667 122.341 72.27 123.037667 71.8393333 123.386 71.2313333 123.386 70.446 123.386 69.5846667 122.974333 68.964 122.151 68.584 121.327667 68.204 120.054667 67.8493333 118.332 67.52 116.685333 67.1906667 115.317333 66.836 114.228 66.456 113.138667 66.076 112.214 65.4616667 111.454 64.613 110.694 63.7643333 110.314 62.6053333 110.314 61.136 110.314 59.0333333 111.093 57.4436667 112.651 56.367 114.209 55.2903333 116.178667 54.752 118.56 54.752 121.068 54.752 123.151667 55.3853333 124.811 56.652 126.470333 57.9186667 127.49 59.7046667 127.87 62.01L123.044 62.01C122.765333 60.8953333 122.220667 60.0783333 121.41 59.559 120.599333 59.0396667 119.636667 58.78 118.522 58.78 117.508667 58.78 116.704333 58.9763333 116.109 59.369 115.513667 59.7616667 115.216 60.2873333 115.216 60.946 115.216 61.7313333 115.608667 62.2886667 116.394 62.618 117.179333 62.9473333 118.420667 63.2766667 120.118 63.606 121.866 63.9353333 123.291 64.2836667 124.393 64.651 125.495 65.0183333 126.445 65.6326667 127.243 66.494 128.041 67.3553333 128.44 68.546 128.44 70.066 128.44 72.1686667 127.661 73.8406667 126.103 75.082 124.545 76.3233333 122.398 76.944 119.662 76.944ZM137.446 76.526 132.316 76.526 132.316 55.208 137.446 55.208 137.446 76.526ZM134.9 52.852C134.013333 52.852 133.266 52.586 132.658 52.054 132.05 51.522 131.746 50.8126667 131.746 49.926 131.746 49.09 132.05 48.3933333 132.658 47.836 133.266 47.2786667 134.013333 47 134.9 47 135.761333 47 136.502333 47.2786667 137.123 47.836 137.743667 48.3933333 138.054 49.09 138.054 49.926 138.054 50.7873333 137.75 51.4903333 137.142 52.035 136.534 52.5796667 135.786667 52.852 134.9 52.852ZM152.152 76.944C150.024 76.944 148.136667 76.4753333 146.49 75.538 144.843333 74.6006667 143.557667 73.2833333 142.633 71.586 141.708333 69.8886667 141.246 67.938 141.246 65.734 141.246 63.606 141.708333 61.706 142.633 60.034 143.557667 58.362 144.843333 57.0636667 146.49 56.139 148.136667 55.2143333 150.024 54.752 152.152 54.752 154.28 54.752 156.173667 55.2206667 157.833 56.158 159.492333 57.0953333 160.784333 58.3936667 161.709 60.053 162.633667 61.7123333 163.096 63.606 163.096 65.734 163.096 67.938 162.64 69.8886667 161.728 71.586 160.816 73.2833333 159.530333 74.6006667 157.871 75.538 156.211667 76.4753333 154.305333 76.944 152.152 76.944ZM152.152 72.536C153.824 72.536 155.179333 71.9026667 156.218 70.636 157.256667 69.3693333 157.776 67.7353333 157.776 65.734 157.776 63.8086667 157.256667 62.2316667 156.218 61.003 155.179333 59.7743333 153.824 59.16 152.152 59.16 151.062667 59.16 150.087333 59.4386667 149.226 59.996 148.364667 60.5533333 147.693333 61.3323333 147.212 62.333 146.730667 63.3336667 146.49 64.4673333 146.49 65.734 146.49 67.7606667 147.015667 69.401 148.067 70.655 149.118333 71.909 150.48 72.536 152.152 72.536ZM166.896 76.526 166.896 55.208 172.026 55.208 172.026 57.906C172.836667 56.766 173.710667 55.9553333 174.648 55.474 175.585333 54.9926667 176.649333 54.752 177.84 54.752 181.133333 54.752 183.35 55.9426667 184.49 58.324 184.87 59.16 185.110667 60.0086667 185.212 60.87 185.313333 61.7313333 185.364 62.8586667 185.364 64.252L185.364 76.526 180.272 76.526 180.272 64.176C180.272 62.124 179.917333 60.7053333 179.208 59.92 178.6 59.2866667 177.700667 58.97 176.51 58.97 175.066 58.97 173.989333 59.4006667 173.28 60.262 172.849333 60.7686667 172.532667 61.4463333 172.33 62.295 172.127333 63.1436667 172.026 64.2646667 172.026 65.658L172.026 76.526 166.896 76.526ZM206.758 76.526C203.439333 76.526 201.78 74.968 201.78 71.852L201.78 59.312 198.626 59.312 198.626 55.208 201.78 55.208 201.78 47.532 206.91 47.532 206.91 55.208 211.014 55.208 211.014 59.312 206.91 59.312 206.91 70.294C206.91 70.9526667 207.017667 71.4466667 207.233 71.776 207.448333 72.1053333 207.923333 72.27 208.658 72.27L210.976 72.27 210.976 76.526 206.758 76.526ZM214.662 76.526 214.662 47.532 219.792 47.532 219.792 57.906C220.628 56.7406667 221.502 55.9236667 222.414 55.455 223.326 54.9863333 224.377333 54.752 225.568 54.752 228.912 54.752 231.128667 55.9426667 232.218 58.324 232.623333 59.16 232.876667 60.0086667 232.978 60.87 233.079333 61.7313333 233.13 62.8586667 233.13 64.252L233.13 76.526 228 76.526 228 64.176C228 63.0866667 227.917667 62.2063333 227.753 61.535 227.588333 60.8636667 227.328667 60.3253333 226.974 59.92 226.366 59.2866667 225.466667 58.97 224.276 58.97 222.806667 58.97 221.717333 59.4006667 221.008 60.262 220.577333 60.7686667 220.267 61.44 220.077 62.276 219.887 63.112 219.792 64.2393333 219.792 65.658L219.792 76.526 214.662 76.526ZM242.744 76.526 237.614 76.526 237.614 55.208 242.744 55.208 242.744 76.526ZM240.198 52.852C239.311333 52.852 238.564 52.586 237.956 52.054 237.348 51.522 237.044 50.8126667 237.044 49.926 237.044 49.09 237.348 48.3933333 237.956 47.836 238.564 47.2786667 239.311333 47 240.198 47 241.059333 47 241.800333 47.2786667 242.421 47.836 243.041667 48.3933333 243.352 49.09 243.352 49.926 243.352 50.7873333 243.048 51.4903333 242.44 52.035 241.832 52.5796667 241.084667 52.852 240.198 52.852ZM256.652 76.944C254.017333 76.944 251.737333 76.3106667 249.812 75.044 247.886667 73.7773333 246.759333 71.8773333 246.43 69.344L251.484 69.344C251.813333 70.484 252.421333 71.3643333 253.308 71.985 254.194667 72.6056667 255.296667 72.916 256.614 72.916 257.728667 72.916 258.634333 72.7006667 259.331 72.27 260.027667 71.8393333 260.376 71.2313333 260.376 70.446 260.376 69.5846667 259.964333 68.964 259.141 68.584 258.317667 68.204 257.044667 67.8493333 255.322 67.52 253.675333 67.1906667 252.307333 66.836 251.218 66.456 250.128667 66.076 249.204 65.4616667 248.444 64.613 247.684 63.7643333 247.304 62.6053333 247.304 61.136 247.304 59.0333333 248.083 57.4436667 249.641 56.367 251.199 55.2903333 253.168667 54.752 255.55 54.752 258.058 54.752 260.141667 55.3853333 261.801 56.652 263.460333 57.9186667 264.48 59.7046667 264.86 62.01L260.034 62.01C259.755333 60.8953333 259.210667 60.0783333 258.4 59.559 257.589333 59.0396667 256.626667 58.78 255.512 58.78 254.498667 58.78 253.694333 58.9763333 253.099 59.369 252.503667 59.7616667 252.206 60.2873333 252.206 60.946 252.206 61.7313333 252.598667 62.2886667 253.384 62.618 254.169333 62.9473333 255.410667 63.2766667 257.108 63.606 258.856 63.9353333 260.281 64.2836667 261.383 64.651 262.485 65.0183333 263.435 65.6326667 264.233 66.494 265.031 67.3553333 265.43 68.546 265.43 70.066 265.43 72.1686667 264.651 73.8406667 263.093 75.082 261.535 76.3233333 259.388 76.944 256.652 76.944ZM279.832 84.202 279.832 79.87 282.15 79.87C282.91 79.87 283.486333 79.7623333 283.879 79.547 284.271667 79.3316667 284.607333 78.8566667 284.886 78.122L285.456 76.602 277.59 55.208 283.138 55.208 288.116 70.864 292.6 55.208 298.11 55.208 289.826 79.034C289.167333 80.934 288.363 82.2703333 287.413 83.043 286.463 83.8156667 285.114 84.202 283.366 84.202L279.832 84.202ZM310.954 76.944C308.800667 76.944 306.900667 76.4753333 305.254 75.538 303.607333 74.6006667 302.334333 73.3023333 301.435 71.643 300.535667 69.9836667 300.086 68.1026667 300.086 66 300.086 64.0493333 300.485 62.219 301.283 60.509 302.081 58.799 303.284333 57.412 304.893 56.348 306.501667 55.284 308.471333 54.752 310.802 54.752 312.727333 54.752 314.500667 55.151 316.122 55.949 317.743333 56.747 319.048 57.9756667 320.036 59.635 321.024 61.2943333 321.518 63.3526667 321.518 65.81L321.518 66.912 305.406 66.912C305.482 67.7986667 305.748 68.6346667 306.204 69.42 306.710667 70.408 307.388333 71.1743333 308.237 71.719 309.085667 72.2636667 310.054667 72.536 311.144 72.536 312.309333 72.536 313.31 72.2383333 314.146 71.643 314.982 71.0476667 315.577333 70.2813333 315.932 69.344L321.176 69.344C320.492 71.5986667 319.288667 73.429 317.566 74.835 315.843333 76.241 313.639333 76.944 310.954 76.944ZM316.274 63.074C316.172667 62.2633333 315.906667 61.6046667 315.476 61.098 314.994667 60.3633333 314.361333 59.7996667 313.576 59.407 312.790667 59.0143333 311.916667 58.818 310.954 58.818 309.991333 58.818 309.123667 59.008 308.351 59.388 307.578333 59.768 306.951333 60.338 306.47 61.098 306.014 61.6553333 305.735333 62.314 305.634 63.074L316.274 63.074ZM331.436 76.944C329.358667 76.944 327.674 76.393 326.382 75.291 325.09 74.189 324.444 72.65 324.444 70.674 324.444 68.546 325.254667 66.9246667 326.876 65.81 328.041333 64.9993333 329.700667 64.3913333 331.854 63.986L338.2 62.808C338.149333 61.4906667 337.807333 60.49 337.174 59.806 336.540667 59.122 335.590667 58.78 334.324 58.78 333.336 58.78 332.468333 59.0713333 331.721 59.654 330.973667 60.2366667 330.511333 61.022 330.334 62.01L325.242 62.01C325.596667 59.654 326.635333 57.8553333 328.358 56.614 330.080667 55.3726667 332.082 54.752 334.362 54.752 335.654 54.752 336.857333 54.9356667 337.972 55.303 339.086667 55.6703333 340.036667 56.2086667 340.822 56.918 341.607333 57.602 342.177333 58.4 342.532 59.312 342.886667 60.224 343.108333 61.136 343.197 62.048 343.285667 62.96 343.33 64.0873333 343.33 65.43L343.33 76.526 338.2 76.526 338.2 73.638C337.668 74.5753333 337.022 75.2846667 336.262 75.766 335.071333 76.5513333 333.462667 76.944 331.436 76.944ZM332.69 72.916C333.703333 72.916 334.615333 72.7133333 335.426 72.308 336.49 71.776 337.224667 71.0666667 337.63 70.18 338.035333 69.2933333 338.263333 68.09 338.314 66.57L333.222 67.596C331.854 67.8493333 330.866 68.2546667 330.258 68.812 329.802 69.268 329.574 69.8253333 329.574 70.484 329.574 71.2693333 329.859 71.871 330.429 72.289 330.999 72.707 331.752667 72.916 332.69 72.916ZM347.738 76.526 347.738 55.208 352.868 55.208 352.868 57.754C353.653333 56.6646667 354.533667 55.892 355.509 55.436 356.484333 54.98 357.630667 54.752 358.948 54.752L359.556 54.752 359.556 59.692 358.378 59.692C356.756667 59.692 355.49 60.1226667 354.578 60.984 353.995333 61.5666667 353.564667 62.3076667 353.286 63.207 353.007333 64.1063333 352.868 65.2526667 352.868 66.646L352.868 76.526 347.738 76.526ZM368.296 66.228C368.296 64.8346667 368.486 63.6756667 368.866 62.751 369.246 61.8263333 369.702 61.098 370.234 60.566 370.766 60.034 371.45 59.4766667 372.286 58.894 373.248667 58.2353333 373.951667 57.6273333 374.395 57.07 374.838333 56.5126667 375.06 55.7526667 375.06 54.79 375.06 53.5993333 374.673667 52.7 373.901 52.092 373.128333 51.484 372.121333 51.18 370.88 51.18 369.461333 51.18 368.334 51.6106667 367.498 52.472 366.662 53.3333333 366.193333 54.562 366.092 56.158L361.456 56.158C361.532 54.258 361.988 52.6176667 362.824 51.237 363.66 49.8563333 364.774667 48.8113333 366.168 48.102 367.561333 47.3926667 369.144667 47.038 370.918 47.038 372.59 47.038 374.103667 47.3356667 375.459 47.931 376.814333 48.5263333 377.891 49.4256667 378.689 50.629 379.487 51.8323333 379.886 53.308 379.886 55.056 379.886 56.1706667 379.727667 57.1143333 379.411 57.887 379.094333 58.6596667 378.701667 59.2866667 378.233 59.768 377.764333 60.2493333 377.15 60.7686667 376.39 61.326 375.706 61.858 375.167667 62.314 374.775 62.694 374.382333 63.074 374.027667 63.5553333 373.711 64.138 373.394333 64.7206667 373.198 65.43 373.122 66.266L372.894 67.824 368.296 67.824 368.296 66.228ZM370.576 76.944C369.74 76.944 369.024333 76.6463333 368.429 76.051 367.833667 75.4556667 367.536 74.74 367.536 73.904 367.536 73.0933333 367.833667 72.384 368.429 71.776 369.024333 71.168 369.74 70.864 370.576 70.864 371.386667 70.864 372.096 71.1616667 372.704 71.757 373.312 72.3523333 373.616 73.0553333 373.616 73.866 373.616 74.7273333 373.318333 75.4556667 372.723 76.051 372.127667 76.6463333 371.412 76.944 370.576 76.944Z"/></g><path fill="#55AC69" fill-rule="nonzero" d="M46.215 48.585C46.215 53.9043333 44.398 58.144 40.764 61.304 37.13 64.464 32.074 66.0966667 25.596 66.202L25.596 73.233 22.278 73.233 22.278 66.123C16.4846667 65.7016667 11.4813333 63.8978333 7.268 60.7115 3.05466667 57.5251667.632 52.851-1.13686838e-13 46.689L10.902 46.689C11.6393333 49.9016667 13.0218333 52.3111667 15.0495 53.9175 17.0771667 55.5238333 19.4866667 56.5376667 22.278 56.959L22.278 40.29 21.725 40.132C17.459 39.184 14.0093333 38.2228333 11.376 37.2485 8.74266667 36.2741667 6.49116667 34.7205 4.6215 32.5875 2.75183333 30.4545 1.817 27.5183333 1.817 23.779 1.817 18.5123333 3.68666667 14.4175 7.426 11.4945 11.1653333 8.5715 16.0106667 7.11 21.962 7.11L22.278 7.11 22.278 0 25.596 0 25.596 7.347C30.5993333 7.92633333 34.8521667 9.717 38.3545 12.719 41.8568333 15.721 43.9766667 19.829 44.714 25.043L33.97 25.043C33.3906667 22.7783333 32.3636667 20.935 30.889 19.513 29.4143333 18.091 27.65 17.143 25.596 16.669L25.596 31.126C29.862 32.074 33.3775 33.0615 36.1425 34.0885 38.9075 35.1155 41.2775 36.7876667 43.2525 39.105 45.2275 41.4223333 46.215 44.5823333 46.215 48.585ZM12.403 22.91C12.403 24.9113333 13.2325 26.4518333 14.8915 27.5315 16.5505 28.6111667 19.0126667 29.5723333 22.278 30.415L22.278 16.195 21.725 16.195C18.9336667 16.195 16.6821667 16.7875 14.9705 17.9725 13.2588333 19.1575 12.403 20.8033333 12.403 22.91ZM25.596 57.117C28.6506667 57.0116667 31.0865 56.3006667 32.9035 54.984 34.7205 53.6673333 35.629 51.7186667 35.629 49.138 35.629 46.8733333 34.76 45.1485 33.022 43.9635 31.284 42.7785 28.8086667 41.791 25.596 41.001L25.596 57.117ZM52.614 66.755 52.614 58.144 71.495 41.554C75.2343333 38.2886667 78.0125 35.2998333 79.8295 32.5875 81.6465 29.8751667 82.555 27.1496667 82.555 24.411 82.555 21.567 81.8045 19.3155 80.3035 17.6565 78.8025 15.9975 76.4983333 15.168 73.391 15.168 66.6496667 15.168 63.0946667 19.3286667 62.726 27.65L52.219 27.65C52.4823333 20.4873333 54.4441667 14.9968333 58.1045 11.1785 61.7648333 7.36016667 66.913 5.451 73.549 5.451 77.341 5.451 80.7116667 6.17516667 83.661 7.6235 86.6103333 9.07183333 88.9145 11.1521667 90.5735 13.8645 92.2325 16.5768333 93.062 19.75 93.062 23.384 93.062 28.0713333 91.7058333 32.4558333 88.9935 36.5375 86.2811667 40.6191667 82.871 44.5033333 78.763 48.19L69.362 56.564 95.669 56.564 95.669 66.755 52.614 66.755ZM124.109 67.861C120.211667 67.861 116.696167 67.0841667 113.5625 65.5305 110.428833 63.9768333 107.900833 61.7911667 105.9785 58.9735 104.056167 56.1558333 102.884333 52.8773333 102.463 49.138L113.918 49.138C114.497333 51.9293333 115.6955 54.0491667 117.5125 55.4975 119.3295 56.9458333 121.633667 57.67 124.425 57.67 127.532333 57.67 129.9945 56.6035 131.8115 54.4705 133.6285 52.3375 134.537 49.533 134.537 46.057 134.537 42.739 133.602167 40.0398333 131.7325 37.9595 129.862833 35.8791667 127.400667 34.839 124.346 34.839 119.869333 34.839 116.551333 36.9193333 114.392 41.08L103.253 41.08 109.731 6.478 143.227 6.478 143.227 16.669 118.026 16.669 115.577 29.625C117.051667 28.3083333 118.7765 27.255 120.7515 26.465 122.7265 25.675 124.741 25.28 126.795 25.28 130.534333 25.28 133.8655 26.149 136.7885 27.887 139.7115 29.625 141.976167 32.0608333 143.5825 35.1945 145.188833 38.3281667 145.992 41.9226667 145.992 45.978 145.992 50.244 145.070333 54.036 143.227 57.354 141.383667 60.672 138.816167 63.2526667 135.5245 65.096 132.232833 66.9393333 128.427667 67.861 124.109 67.861ZM175.064 67.861C160.317333 67.861 152.944 57.3803333 152.944 36.419 152.944 25.7276667 154.84 17.8803333 158.632 12.877 162.424 7.87366667 167.822333 5.372 174.827 5.372 189.521 5.372 196.868 15.8526667 196.868 36.814 196.868 57.512 189.6 67.861 175.064 67.861ZM174.827 57.67C178.250333 57.67 180.883667 56.09 182.727 52.93 184.570333 49.77 185.492 44.3453333 185.492 36.656 185.492 28.9666667 184.544 23.542 182.648 20.382 180.752 17.222 178.092333 15.642 174.669 15.642 171.245667 15.642 168.665 17.2088333 166.927 20.3425 165.189 23.4761667 164.32 28.8876667 164.32 36.577 164.32 44.319 165.215333 49.77 167.006 52.93 168.796667 56.09 171.403667 57.67 174.827 57.67Z" transform="translate(745.054 494.245)"/><g fill="#444" fill-rule="nonzero" transform="translate(235.42 516.366)"><polygon points="15.834 32.634 9.786 32.634 9.786 6.006 0 6.006 0 .588 25.578 .588 25.578 6.006 15.834 6.006"/><path d="M33.852,33.096 C31.5,33.096 29.414,32.578 27.594,31.542 C25.774,30.506 24.353,29.05 23.331,27.174 C22.309,25.298 21.798,23.142 21.798,20.706 C21.798,18.354 22.309,16.254 23.331,14.406 C24.353,12.558 25.774,11.123 27.594,10.101 C29.414,9.079 31.5,8.568 33.852,8.568 C36.204,8.568 38.297,9.086 40.131,10.122 C41.965,11.158 43.393,12.593 44.415,14.427 C45.437,16.261 45.948,18.354 45.948,20.706 C45.948,23.142 45.444,25.298 44.436,27.174 C43.428,29.05 42.007,30.506 40.173,31.542 C38.339,32.578 36.232,33.096 33.852,33.096 Z M33.852,28.224 C35.7,28.224 37.198,27.524 38.346,26.124 C39.494,24.724 40.068,22.918 40.068,20.706 C40.068,18.578 39.494,16.835 38.346,15.477 C37.198,14.119 35.7,13.44 33.852,13.44 C32.648,13.44 31.57,13.748 30.618,14.364 C29.666,14.98 28.924,15.841 28.392,16.947 C27.86,18.053 27.594,19.306 27.594,20.706 C27.594,22.946 28.175,24.759 29.337,26.145 C30.499,27.531 32.004,28.224 33.852,28.224 Z"/><polygon points="76.902 32.634 67.83 32.634 59.472 .588 65.814 .588 72.408 27.174 78.372 .588 86.058 .588 92.022 27.216 98.616 .588 104.958 .588 96.558 32.634 87.528 32.634 82.194 7.812"/><path d="M113.778 32.634 108.108 32.634 108.108 9.072 113.778 9.072 113.778 32.634ZM110.964 6.468C109.984 6.468 109.158 6.174 108.486 5.586 107.814 4.998 107.478 4.214 107.478 3.234 107.478 2.31 107.814 1.54 108.486.924 109.158.308 109.984 0 110.964 0 111.916 0 112.735.308 113.421.924 114.107 1.54 114.45 2.31 114.45 3.234 114.45 4.186 114.114 4.963 113.442 5.565 112.77 6.167 111.944 6.468 110.964 6.468ZM118.944 32.634 118.944 9.072 124.614 9.072 124.614 12.054C125.51 10.794 126.476 9.898 127.512 9.366 128.548 8.834 129.724 8.568 131.04 8.568 134.68 8.568 137.13 9.884 138.39 12.516 138.81 13.44 139.076 14.378 139.188 15.33 139.3 16.282 139.356 17.528 139.356 19.068L139.356 32.634 133.728 32.634 133.728 18.984C133.728 16.716 133.336 15.148 132.552 14.28 131.88 13.58 130.886 13.23 129.57 13.23 127.974 13.23 126.784 13.706 126 14.658 125.524 15.218 125.174 15.967 124.95 16.905 124.726 17.843 124.614 19.082 124.614 20.622L124.614 32.634 118.944 32.634Z"/></g><g fill="#444" fill-rule="nonzero" transform="translate(235.31 416.347)"><polygon points="11.687 23.653 7.223 23.653 7.223 3.999 0 3.999 0 0 18.879 0 18.879 3.999 11.687 3.999"/><path d="M19.437 23.653 19.437 6.262 23.622 6.262 23.622 8.339C24.2626667 7.45033333 24.9808333 6.82 25.7765 6.448 26.5721667 6.076 27.5073333 5.89 28.582 5.89L29.078 5.89 29.078 9.92 28.117 9.92C26.7943333 9.92 25.761 10.2713333 25.017 10.974 24.5416667 11.4493333 24.1903333 12.0538333 23.963 12.7875 23.7356667 13.5211667 23.622 14.4563333 23.622 15.593L23.622 23.653 19.437 23.653ZM36.394 23.994C34.6993333 23.994 33.325 23.5445 32.271 22.6455 31.217 21.7465 30.69 20.491 30.69 18.879 30.69 17.143 31.3513333 15.8203333 32.674 14.911 33.6246667 14.2496667 34.9783333 13.7536667 36.735 13.423L41.912 12.462C41.8706667 11.3873333 41.5916667 10.571 41.075 10.013 40.5583333 9.455 39.7833333 9.176 38.75 9.176 37.944 9.176 37.2361667 9.41366667 36.6265 9.889 36.0168333 10.3643333 35.6396667 11.005 35.495 11.811L31.341 11.811C31.6303333 9.889 32.4776667 8.42166667 33.883 7.409 35.2883333 6.39633333 36.921 5.89 38.781 5.89 39.835 5.89 40.8166667 6.03983333 41.726 6.3395 42.6353333 6.63916667 43.4103333 7.07833333 44.051 7.657 44.6916667 8.215 45.1566667 8.866 45.446 9.61 45.7353333 10.354 45.9161667 11.098 45.9885 11.842 46.0608333 12.586 46.097 13.5056667 46.097 14.601L46.097 23.653 41.912 23.653 41.912 21.297C41.478 22.0616667 40.951 22.6403333 40.331 23.033 39.3596667 23.6736667 38.0473333 23.994 36.394 23.994ZM37.417 20.708C38.2436667 20.708 38.9876667 20.5426667 39.649 20.212 40.517 19.778 41.1163333 19.1993333 41.447 18.476 41.7776667 17.7526667 41.9636667 16.771 42.005 15.531L37.851 16.368C36.735 16.5746667 35.929 16.9053333 35.433 17.36 35.061 17.732 34.875 18.1866667 34.875 18.724 34.875 19.3646667 35.1075 19.8555 35.5725 20.1965 36.0375 20.5375 36.6523333 20.708 37.417 20.708ZM56.699 23.994C55.1903333 23.994 53.8573333 23.6116667 52.7 22.847 51.5426667 22.0823333 50.6436667 21.0128333 50.003 19.6385 49.3623333 18.2641667 49.042 16.6986667 49.042 14.942 49.042 13.1853333 49.3623333 11.6198333 50.003 10.2455 50.6436667 8.87116667 51.5426667 7.80166667 52.7 7.037 53.8573333 6.27233333 55.1903333 5.89 56.699 5.89 57.7736667 5.89 58.6985 6.08116667 59.4735 6.4635 60.2485 6.84583333 60.9666667 7.51233333 61.628 8.463L61.628 0 65.813 0 65.813 23.653 61.628 23.653 61.628 21.452C60.946 22.4026667 60.2226667 23.064 59.458 23.436 58.6933333 23.808 57.7736667 23.994 56.699 23.994ZM57.66 20.398C58.9826667 20.398 60.0625 19.8916667 60.8995 18.879 61.7365 17.8663333 62.155 16.554 62.155 14.942 62.155 13.33 61.7365 12.0176667 60.8995 11.005 60.0625 9.99233333 58.9826667 9.486 57.66 9.486 56.3373333 9.486 55.273 9.9975 54.467 11.0205 53.661 12.0435 53.258 13.3506667 53.258 14.942 53.258 16.5333333 53.661 17.8405 54.467 18.8635 55.273 19.8865 56.3373333 20.398 57.66 20.398ZM77.221 23.994C75.4643333 23.994 73.9143333 23.6116667 72.571 22.847 71.2276667 22.0823333 70.1891667 21.0231667 69.4555 19.6695 68.7218333 18.3158333 68.355 16.7813333 68.355 15.066 68.355 13.4746667 68.6805 11.9815 69.3315 10.5865 69.9825 9.1915 70.9641667 8.06 72.2765 7.192 73.5888333 6.324 75.1956667 5.89 77.097 5.89 78.6676667 5.89 80.1143333 6.2155 81.437 6.8665 82.7596667 7.5175 83.824 8.51983333 84.63 9.8735 85.436 11.2271667 85.839 12.9063333 85.839 14.911L85.839 15.81 72.695 15.81C72.757 16.5333333 72.974 17.2153333 73.346 17.856 73.7593333 18.662 74.3121667 19.2871667 75.0045 19.7315 75.6968333 20.1758333 76.4873333 20.398 77.376 20.398 78.3266667 20.398 79.143 20.1551667 79.825 19.6695 80.507 19.1838333 80.9926667 18.5586667 81.282 17.794L85.56 17.794C85.002 19.6333333 84.0203333 21.1265 82.615 22.2735 81.2096667 23.4205 79.4116667 23.994 77.221 23.994ZM81.561 12.679C81.4783333 12.0176667 81.2613333 11.4803333 80.91 11.067 80.5173333 10.4676667 80.0006667 10.0078333 79.36 9.6875 78.7193333 9.36716667 78.0063333 9.207 77.221 9.207 76.4356667 9.207 75.7278333 9.362 75.0975 9.672 74.4671667 9.982 73.9556667 10.447 73.563 11.067 73.191 11.5216667 72.9636667 12.059 72.881 12.679L81.561 12.679Z"/></g><path fill="#444" fill-rule="nonzero" d="M11.47 24.521C8.96933333 24.521 6.85616667 23.9681667 5.1305 22.8625 3.40483333 21.7568333 2.11833333 20.274 1.271 18.414.423666667 16.554 2.84217094e-14 14.4976667 2.84217094e-14 12.245 2.84217094e-14 9.99233333.423666667 7.94116667 1.271 6.0915 2.11833333 4.24183333 3.40483333 2.76416667 5.1305 1.6585 6.85616667.552833333 8.96933333 0 11.47 0 13.9913333 0 16.1148333.552833333 17.8405 1.6585 19.5661667 2.76416667 20.8526667 4.24183333 21.7 6.0915 22.5473333 7.94116667 22.971 9.99233333 22.971 12.245 22.971 14.4976667 22.5473333 16.554 21.7 18.414 20.8526667 20.274 19.5661667 21.7568333 17.8405 22.8625 16.1148333 23.9681667 13.9913333 24.521 11.47 24.521ZM11.47 20.522C13.6193333 20.522 15.2985 19.7676667 16.5075 18.259 17.7165 16.7503333 18.321 14.7456667 18.321 12.245 18.321 9.74433333 17.7165 7.75 16.5075 6.262 15.2985 4.774 13.6193333 4.03 11.47 4.03 9.34133333 4.03 7.6725 4.77916667 6.4635 6.2775 5.2545 7.77583333 4.65 9.765 4.65 12.245 4.65 14.7456667 5.2545 16.7503333 6.4635 18.259 7.6725 19.7676667 9.34133333 20.522 11.47 20.522ZM33.108 24.428C31.5993333 24.428 30.2663333 24.0456667 29.109 23.281 27.9516667 22.5163333 27.0526667 21.4468333 26.412 20.0725 25.7713333 18.6981667 25.451 17.1326667 25.451 15.376 25.451 13.6193333 25.7713333 12.0538333 26.412 10.6795 27.0526667 9.30516667 27.9516667 8.23566667 29.109 7.471 30.2663333 6.70633333 31.5993333 6.324 33.108 6.324 34.1826667 6.324 35.1075 6.51516667 35.8825 6.8975 36.6575 7.27983333 37.3756667 7.94633333 38.037 8.897L38.037.434 42.222.434 42.222 24.087 38.037 24.087 38.037 21.886C37.355 22.8366667 36.6316667 23.498 35.867 23.87 35.1023333 24.242 34.1826667 24.428 33.108 24.428ZM34.069 20.832C35.3916667 20.832 36.4715 20.3256667 37.3085 19.313 38.1455 18.3003333 38.564 16.988 38.564 15.376 38.564 13.764 38.1455 12.4516667 37.3085 11.439 36.4715 10.4263333 35.3916667 9.92 34.069 9.92 32.7463333 9.92 31.682 10.4315 30.876 11.4545 30.07 12.4775 29.667 13.7846667 29.667 15.376 29.667 16.9673333 30.07 18.2745 30.876 19.2975 31.682 20.3205 32.7463333 20.832 34.069 20.832ZM52.483 24.428C50.9743333 24.428 49.6413333 24.0456667 48.484 23.281 47.3266667 22.5163333 46.4276667 21.4468333 45.787 20.0725 45.1463333 18.6981667 44.826 17.1326667 44.826 15.376 44.826 13.6193333 45.1463333 12.0538333 45.787 10.6795 46.4276667 9.30516667 47.3266667 8.23566667 48.484 7.471 49.6413333 6.70633333 50.9743333 6.324 52.483 6.324 53.5576667 6.324 54.4825 6.51516667 55.2575 6.8975 56.0325 7.27983333 56.7506667 7.94633333 57.412 8.897L57.412.434 61.597.434 61.597 24.087 57.412 24.087 57.412 21.886C56.73 22.8366667 56.0066667 23.498 55.242 23.87 54.4773333 24.242 53.5576667 24.428 52.483 24.428ZM53.444 20.832C54.7666667 20.832 55.8465 20.3256667 56.6835 19.313 57.5205 18.3003333 57.939 16.988 57.939 15.376 57.939 13.764 57.5205 12.4516667 56.6835 11.439 55.8465 10.4263333 54.7666667 9.92 53.444 9.92 52.1213333 9.92 51.057 10.4315 50.251 11.4545 49.445 12.4775 49.042 13.7846667 49.042 15.376 49.042 16.9673333 49.445 18.2745 50.251 19.2975 51.057 20.3205 52.1213333 20.832 53.444 20.832ZM72.943 24.428C70.7936667 24.428 68.9336667 23.9113333 67.363 22.878 65.7923333 21.8446667 64.8726667 20.2946667 64.604 18.228L68.727 18.228C68.9956667 19.158 69.4916667 19.8761667 70.215 20.3825 70.9383333 20.8888333 71.8373333 21.142 72.912 21.142 73.8213333 21.142 74.5601667 20.9663333 75.1285 20.615 75.6968333 20.2636667 75.981 19.7676667 75.981 19.127 75.981 18.4243333 75.6451667 17.918 74.9735 17.608 74.3018333 17.298 73.2633333 17.0086667 71.858 16.74 70.5146667 16.4713333 69.3986667 16.182 68.51 15.872 67.6213333 15.562 66.867 15.0608333 66.247 14.3685 65.627 13.6761667 65.317 12.7306667 65.317 11.532 65.317 9.81666667 65.9525 8.51983333 67.2235 7.6415 68.4945 6.76316667 70.1013333 6.324 72.044 6.324 74.09 6.324 75.7898333 6.84066667 77.1435 7.874 78.4971667 8.90733333 79.329 10.3643333 79.639 12.245L75.702 12.245C75.4746667 11.3356667 75.0303333 10.6691667 74.369 10.2455 73.7076667 9.82183333 72.9223333 9.61 72.013 9.61 71.1863333 9.61 70.5301667 9.77016667 70.0445 10.0905 69.5588333 10.4108333 69.316 10.8396667 69.316 11.377 69.316 12.0176667 69.6363333 12.4723333 70.277 12.741 70.9176667 13.0096667 71.9303333 13.2783333 73.315 13.547 74.741 13.8156667 75.9035 14.0998333 76.8025 14.3995 77.7015 14.6991667 78.4765 15.2003333 79.1275 15.903 79.7785 16.6056667 80.104 17.577 80.104 18.817 80.104 20.5323333 79.4685 21.8963333 78.1975 22.909 76.9265 23.9216667 75.175 24.428 72.943 24.428Z" transform="translate(236.209 337.913)"/><rect width="711" height="93" x="235" y="622" fill="#0072A8" rx="8"/><rect width="711" height="93" x="235" y="616" fill="#00A6F4" rx="8"/><path fill="#FFF" fill-rule="nonzero" d="M15.54 33.222C12.124 33.222 9.254 32.473 6.93 30.975 4.606 29.477 2.87 27.468 1.722 24.948.574 22.428-5.68434189e-14 19.642-5.68434189e-14 16.59-5.68434189e-14 13.538.574 10.759 1.722 8.253 2.87 5.747 4.606 3.745 6.93 2.247 9.254.749 12.124 0 15.54 0 19.404 0 22.526.966 24.906 2.898 27.286 4.83 28.7 7.406 29.148 10.626L22.554 10.626C22.274 8.946 21.49 7.658 20.202 6.762 18.914 5.866 17.304 5.418 15.372 5.418 12.488 5.418 10.255 6.433 8.673 8.463 7.091 10.493 6.3 13.202 6.3 16.59 6.3 20.006 7.091 22.729 8.673 24.759 10.255 26.789 12.488 27.804 15.372 27.804 17.332 27.804 18.942 27.335 20.202 26.397 21.462 25.459 22.246 24.066 22.554 22.218L29.148 22.218C28.7 25.606 27.293 28.287 24.927 30.261 22.561 32.235 19.432 33.222 15.54 33.222ZM39.942 33.096C37.646 33.096 35.784 32.487 34.356 31.269 32.928 30.051 32.214 28.35 32.214 26.166 32.214 23.814 33.11 22.022 34.902 20.79 36.19 19.894 38.024 19.222 40.404 18.774L47.418 17.472C47.362 16.016 46.984 14.91 46.284 14.154 45.584 13.398 44.534 13.02 43.134 13.02 42.042 13.02 41.083 13.342 40.257 13.986 39.431 14.63 38.92 15.498 38.724 16.59L33.096 16.59C33.488 13.986 34.636 11.998 36.54 10.626 38.444 9.254 40.656 8.568 43.176 8.568 44.604 8.568 45.934 8.771 47.166 9.177 48.398 9.583 49.448 10.178 50.316 10.962 51.184 11.718 51.814 12.6 52.206 13.608 52.598 14.616 52.843 15.624 52.941 16.632 53.039 17.64 53.088 18.886 53.088 20.37L53.088 32.634 47.418 32.634 47.418 29.442C46.83 30.478 46.116 31.262 45.276 31.794 43.96 32.662 42.182 33.096 39.942 33.096ZM41.328 28.644C42.448 28.644 43.456 28.42 44.352 27.972 45.528 27.384 46.34 26.6 46.788 25.62 47.236 24.64 47.488 23.31 47.544 21.63L41.916 22.764C40.404 23.044 39.312 23.492 38.64 24.108 38.136 24.612 37.884 25.228 37.884 25.956 37.884 26.824 38.199 27.489 38.829 27.951 39.459 28.413 40.292 28.644 41.328 28.644ZM68.166 33.096C65.254 33.096 62.734 32.396 60.606 30.996 58.478 29.596 57.232 27.496 56.868 24.696L62.454 24.696C62.818 25.956 63.49 26.929 64.47 27.615 65.45 28.301 66.668 28.644 68.124 28.644 69.356 28.644 70.357 28.406 71.127 27.93 71.897 27.454 72.282 26.782 72.282 25.914 72.282 24.962 71.827 24.276 70.917 23.856 70.007 23.436 68.6 23.044 66.696 22.68 64.876 22.316 63.364 21.924 62.16 21.504 60.956 21.084 59.934 20.405 59.094 19.467 58.254 18.529 57.834 17.248 57.834 15.624 57.834 13.3 58.695 11.543 60.417 10.353 62.139 9.163 64.316 8.568 66.948 8.568 69.72 8.568 72.023 9.268 73.857 10.668 75.691 12.068 76.818 14.042 77.238 16.59L71.904 16.59C71.596 15.358 70.994 14.455 70.098 13.881 69.202 13.307 68.138 13.02 66.906 13.02 65.786 13.02 64.897 13.237 64.239 13.671 63.581 14.105 63.252 14.686 63.252 15.414 63.252 16.282 63.686 16.898 64.554 17.262 65.422 17.626 66.794 17.99 68.67 18.354 70.602 18.718 72.177 19.103 73.395 19.509 74.613 19.915 75.663 20.594 76.545 21.546 77.427 22.498 77.868 23.814 77.868 25.494 77.868 27.818 77.007 29.666 75.285 31.038 73.563 32.41 71.19 33.096 68.166 33.096ZM82.194 32.634 82.194.588 87.864.588 87.864 12.054C88.788 10.766 89.754 9.863 90.762 9.345 91.77 8.827 92.932 8.568 94.248 8.568 97.944 8.568 100.394 9.884 101.598 12.516 102.046 13.44 102.326 14.378 102.438 15.33 102.55 16.282 102.606 17.528 102.606 19.068L102.606 32.634 96.936 32.634 96.936 18.984C96.936 17.78 96.845 16.807 96.663 16.065 96.481 15.323 96.194 14.728 95.802 14.28 95.13 13.58 94.136 13.23 92.82 13.23 91.196 13.23 89.992 13.706 89.208 14.658 88.732 15.218 88.389 15.96 88.179 16.884 87.969 17.808 87.864 19.054 87.864 20.622L87.864 32.634 82.194 32.634ZM129.906 33.096C127.554 33.096 125.468 32.578 123.648 31.542 121.828 30.506 120.407 29.05 119.385 27.174 118.363 25.298 117.852 23.142 117.852 20.706 117.852 18.354 118.363 16.254 119.385 14.406 120.407 12.558 121.828 11.123 123.648 10.101 125.468 9.079 127.554 8.568 129.906 8.568 132.258 8.568 134.351 9.086 136.185 10.122 138.019 11.158 139.447 12.593 140.469 14.427 141.491 16.261 142.002 18.354 142.002 20.706 142.002 23.142 141.498 25.298 140.49 27.174 139.482 29.05 138.061 30.506 136.227 31.542 134.393 32.578 132.286 33.096 129.906 33.096ZM129.906 28.224C131.754 28.224 133.252 27.524 134.4 26.124 135.548 24.724 136.122 22.918 136.122 20.706 136.122 18.578 135.548 16.835 134.4 15.477 133.252 14.119 131.754 13.44 129.906 13.44 128.702 13.44 127.624 13.748 126.672 14.364 125.72 14.98 124.978 15.841 124.446 16.947 123.914 18.053 123.648 19.306 123.648 20.706 123.648 22.946 124.229 24.759 125.391 26.145 126.553 27.531 128.058 28.224 129.906 28.224ZM154.434 33.096C150.794 33.096 148.344 31.794 147.084 29.19 146.692 28.406 146.426 27.545 146.286 26.607 146.146 25.669 146.076 24.346 146.076 22.638L146.076 9.072 151.746 9.072 151.746 22.68C151.746 23.884 151.837 24.857 152.019 25.599 152.201 26.341 152.488 26.936 152.88 27.384 153.552 28.084 154.546 28.434 155.862 28.434 157.486 28.434 158.69 27.958 159.474 27.006 159.95 26.446 160.293 25.704 160.503 24.78 160.713 23.856 160.818 22.61 160.818 21.042L160.818 9.072 166.488 9.072 166.488 32.634 160.818 32.634 160.818 29.652C159.95 30.856 159.019 31.731 158.025 32.277 157.031 32.823 155.834 33.096 154.434 33.096ZM179.046 32.634C175.378 32.634 173.544 30.912 173.544 27.468L173.544 13.608 170.058 13.608 170.058 9.072 173.544 9.072 173.544.588 179.214.588 179.214 9.072 183.75 9.072 183.75 13.608 179.214 13.608 179.214 25.746C179.214 26.474 179.333 27.02 179.571 27.384 179.809 27.748 180.334 27.93 181.146 27.93L183.708 27.93 183.708 32.634 179.046 32.634Z" transform="translate(499.638 646.366)"/><path fill="#32C777" fill-rule="nonzero" d="M28.35,40.95 L28.35,34.65 C23.1309091,34.65 18.9,30.4190909 18.9,25.2 C18.9,19.9809091 23.1309091,15.75 28.35,15.75 L28.35,12.6 C28.35,10.860303 29.760303,9.45 31.5,9.45 C33.239697,9.45 34.65,10.860303 34.65,12.6 L34.65,15.75 L34.7193,15.75 C39.9001176,15.75 44.1,19.9498824 44.1,25.1307 C44.1,26.870397 42.689697,28.2807 40.95,28.2807 C39.210303,28.2807 37.8,26.870397 37.8,25.1307 C37.8,23.4292764 36.4207236,22.05 34.7193,22.05 L34.65,22.05 L34.65,28.35 C39.8690909,28.35 44.1,32.5809091 44.1,37.8 C44.1,43.0190909 39.8690909,47.25 34.65,47.25 L34.65,50.4 C34.65,52.139697 33.239697,53.55 31.5,53.55 C29.760303,53.55 28.35,52.139697 28.35,50.4 L28.35,47.25 L28.18935,47.25 C23.0589837,47.25 18.9,43.0910163 18.9,37.96065 C18.9,36.220953 20.310303,34.81065 22.05,34.81065 C23.789697,34.81065 25.2,36.220953 25.2,37.96065 C25.2017362,39.6109027 26.5390973,40.9482638 28.18935,40.95 L28.35,40.95 Z M34.65,40.95 C36.389697,40.95 37.8,39.539697 37.8,37.8 C37.8,36.060303 36.389697,34.65 34.65,34.65 L34.65,40.95 Z M28.35,22.05 C26.610303,22.05 25.2,23.460303 25.2,25.2 C25.2,26.939697 26.610303,28.35 28.35,28.35 L28.35,22.05 Z M31.5,63 C14.10255,63 0,48.89745 0,31.5 C0,14.10255 14.10255,0 31.5,0 C48.89745,0 63,14.10255 63,31.5 C63,48.89745 48.89745,63 31.5,63 Z M31.5,56.7 C45.4175757,56.7 56.7,45.4175757 56.7,31.5 C56.7,17.5824243 45.4175757,6.3 31.5,6.3 C17.5824243,6.3 6.3,17.5824243 6.3,31.5 C6.3,45.4175757 17.5824243,56.7 31.5,56.7 Z" transform="translate(252 166)"/></g></svg>
