<svg shape-rendering="geometricPrecision" text-rendering="geometricPrecision" xmlns="http://www.w3.org/2000/svg" viewBox="0 0 1024 769"><defs></defs><g fill="none" fill-rule="evenodd" transform="translate(58.115 103.34)"><g transform="rotate(8 180.6 2582.708)"><rect width="551" height="385" fill="#FFF" rx="40"/><rect width="551" height="385" fill="#FFF" rx="40"/><rect width="52" height="48" x="460.156" y="162.191" fill="#F2F2F2" rx="8"/><rect width="52" height="48" x="40.156" y="162.191" fill="#F2F2F2" rx="8"/><polygon fill="gray" fill-rule="nonzero" points="16.25 27.95 11.7 27.95 11.7 16.25 0 16.25 0 11.7 11.7 11.7 11.7 0 16.25 0 16.25 11.7 27.95 11.7 27.95 16.25 16.25 16.25" transform="translate(472.156 170.341)"/><polygon fill="gray" fill-rule="nonzero" points="24.354 4.698 0 4.698 0 0 24.354 0" transform="translate(53.4 182.191)"/><rect width="499.816" height="67.737" x="26.921" y="292.455" fill="#A43F36" rx="8"/><rect width="499.816" height="73.895" x="26.921" y="282.191" fill="#FF5A54" rx="8"/><g fill-rule="nonzero" transform="translate(185.446 198.686)"><polygon fill="#444" points="10.933 24.505 6.757 24.505 6.757 6.119 0 6.119 0 2.378 17.661 2.378 17.661 6.119 10.933 6.119"/><path fill="#444" d="M23.374,24.824 C21.75,24.824 20.3096667,24.4663333 19.053,23.751 C17.7963333,23.0356667 16.8151667,22.0303333 16.1095,20.735 C15.4038333,19.4396667 15.051,17.951 15.051,16.269 C15.051,14.645 15.4038333,13.195 16.1095,11.919 C16.8151667,10.643 17.7963333,9.65216667 19.053,8.9465 C20.3096667,8.24083333 21.75,7.888 23.374,7.888 C24.998,7.888 26.4431667,8.24566667 27.7095,8.961 C28.9758333,9.67633333 29.9618333,10.6671667 30.6675,11.9335 C31.3731667,13.1998333 31.726,14.645 31.726,16.269 C31.726,17.951 31.378,19.4396667 30.682,20.735 C29.986,22.0303333 29.0048333,23.0356667 27.7385,23.751 C26.4721667,24.4663333 25.0173333,24.824 23.374,24.824 Z M23.374,21.46 C24.65,21.46 25.6843333,20.9766667 26.477,20.01 C27.2696667,19.0433333 27.666,17.7963333 27.666,16.269 C27.666,14.7996667 27.2696667,13.5961667 26.477,12.6585 C25.6843333,11.7208333 24.65,11.252 23.374,11.252 C22.5426667,11.252 21.7983333,11.4646667 21.141,11.89 C20.4836667,12.3153333 19.9713333,12.9098333 19.604,13.6735 C19.2366667,14.4371667 19.053,15.3023333 19.053,16.269 C19.053,17.8156667 19.4541667,19.0675 20.2565,20.0245 C21.0588333,20.9815 22.098,21.46 23.374,21.46 Z"/><polygon fill="#444" points="53.099 24.505 46.835 24.505 41.064 2.378 45.443 2.378 49.996 20.735 54.114 2.378 59.421 2.378 63.539 20.764 68.092 2.378 72.471 2.378 66.671 24.505 60.436 24.505 56.753 7.366"/><path fill="#444" d="M78.561 24.505 74.646 24.505 74.646 8.236 78.561 8.236 78.561 24.505ZM76.618 6.438C75.9413333 6.438 75.371 6.235 74.907 5.829 74.443 5.423 74.211 4.88166667 74.211 4.205 74.211 3.567 74.443 3.03533333 74.907 2.61 75.371 2.18466667 75.9413333 1.972 76.618 1.972 77.2753333 1.972 77.8408333 2.18466667 78.3145 2.61 78.7881667 3.03533333 79.025 3.567 79.025 4.205 79.025 4.86233333 78.793 5.39883333 78.329 5.8145 77.865 6.23016667 77.2946667 6.438 76.618 6.438ZM82.128 24.505 82.128 8.236 86.043 8.236 86.043 10.295C86.6616667 9.425 87.3286667 8.80633333 88.044 8.439 88.7593333 8.07166667 89.5713333 7.888 90.48 7.888 92.9933333 7.888 94.685 8.79666667 95.555 10.614 95.845 11.252 96.0286667 11.8996667 96.106 12.557 96.1833333 13.2143333 96.222 14.0746667 96.222 15.138L96.222 24.505 92.336 24.505 92.336 15.08C92.336 13.514 92.0653333 12.4313333 91.524 11.832 91.06 11.3486667 90.3736667 11.107 89.465 11.107 88.363 11.107 87.5413333 11.4356667 87 12.093 86.6713333 12.4796667 86.4296667 12.9968333 86.275 13.6445 86.1203333 14.2921667 86.043 15.1476667 86.043 16.211L86.043 24.505 82.128 24.505Z"/><path fill="#55AC69" d="M123.395 17.835C123.395 19.7876667 122.728 21.344 121.394 22.504 120.06 23.664 118.204 24.2633333 115.826 24.302L115.826 26.883 114.608 26.883 114.608 24.273C112.481333 24.1183333 110.644667 23.4561667 109.098 22.2865 107.551333 21.1168333 106.662 19.401 106.43 17.139L110.432 17.139C110.702667 18.3183333 111.210167 19.2028333 111.9545 19.7925 112.698833 20.3821667 113.583333 20.7543333 114.608 20.909L114.608 14.79 114.405 14.732C112.839 14.384 111.572667 14.0311667 110.606 13.6735 109.639333 13.3158333 108.812833 12.7455 108.1265 11.9625 107.440167 11.1795 107.097 10.1016667 107.097 8.729 107.097 6.79566667 107.783333 5.2925 109.156 4.2195 110.528667 3.1465 112.307333 2.61 114.492 2.61L114.608 2.61 114.608-4.84303356e-14 115.826-4.84303356e-14 115.826 2.697C117.662667 2.90966667 119.223833 3.567 120.5095 4.669 121.795167 5.771 122.573333 7.279 122.844 9.193L118.9 9.193C118.687333 8.36166667 118.310333 7.685 117.769 7.163 117.227667 6.641 116.58 6.293 115.826 6.119L115.826 11.426C117.392 11.774 118.6825 12.1365 119.6975 12.5135 120.7125 12.8905 121.5825 13.5043333 122.3075 14.355 123.0325 15.2056667 123.395 16.3656667 123.395 17.835ZM110.983 8.41C110.983 9.14466667 111.2875 9.71016667 111.8965 10.1065 112.5055 10.5028333 113.409333 10.8556667 114.608 11.165L114.608 5.945 114.405 5.945C113.380333 5.945 112.553833 6.1625 111.9255 6.5975 111.297167 7.0325 110.983 7.63666667 110.983 8.41ZM115.826 20.967C116.947333 20.9283333 117.8415 20.6673333 118.5085 20.184 119.1755 19.7006667 119.509 18.9853333 119.509 18.038 119.509 17.2066667 119.19 16.5735 118.552 16.1385 117.914 15.7035 117.005333 15.341 115.826 15.051L115.826 20.967ZM133.487 7.482C132.771667 8.39066667 131.892 9.1495 130.848 9.7585 129.804 10.3675 128.673 10.7686667 127.455 10.962L127.455 7.105C128.866333 6.815 130.113333 6.24466667 131.196 5.394 132.278667 4.54333333 133.090667 3.538 133.632 2.378L137.663 2.378 137.663 24.505 133.487 24.505 133.487 7.482ZM152.192 24.911C150.568 24.911 149.137333 24.6113333 147.9 24.012 146.662667 23.4126667 145.686333 22.5571667 144.971 21.4455 144.255667 20.3338333 143.859333 19.024 143.782 17.516L147.958 17.516C148.228667 20.068 149.669 21.344 152.279 21.344 153.458333 21.344 154.371833 21.0346667 155.0195 20.416 155.667167 19.7973333 155.991 18.9466667 155.991 17.864 155.991 16.762 155.609167 15.9403333 154.8455 15.399 154.081833 14.8576667 153.004 14.587 151.612 14.587L150.249 14.587 150.249 11.194 151.467 11.194C152.433667 11.194 153.236 10.9378333 153.874 10.4255 154.512 9.91316667 154.831 9.20266667 154.831 8.294 154.831 7.44333333 154.57 6.77633333 154.048 6.293 153.526 5.80966667 152.791333 5.568 151.844 5.568 150.896667 5.568 150.123333 5.83383333 149.524 6.3655 148.924667 6.89716667 148.547667 7.714 148.393 8.816L144.594 8.816C144.652 7.46266667 145 6.26883333 145.638 5.2345 146.276 4.20016667 147.136333 3.40266667 148.219 2.842 149.301667 2.28133333 150.519667 2.001 151.873 2.001 153.245667 2.001 154.458833 2.262 155.5125 2.784 156.566167 3.306 157.387833 4.02133333 157.9775 4.93 158.567167 5.83866667 158.862 6.86333333 158.862 8.004 158.862 9.106 158.5575 10.0726667 157.9485 10.904 157.3395 11.7353333 156.542 12.2573333 155.556 12.47 157.006 12.644 158.141833 13.2385 158.9635 14.2535 159.785167 15.2685 160.196 16.4913333 160.196 17.922 160.196 19.2753333 159.857667 20.4836667 159.181 21.547 158.504333 22.6103333 157.561833 23.4368333 156.3535 24.0265 155.145167 24.6161667 153.758 24.911 152.192 24.911ZM170.752 24.911C169.128 24.911 167.697333 24.6113333 166.46 24.012 165.222667 23.4126667 164.246333 22.5571667 163.531 21.4455 162.815667 20.3338333 162.419333 19.024 162.342 17.516L166.518 17.516C166.788667 20.068 168.229 21.344 170.839 21.344 172.018333 21.344 172.931833 21.0346667 173.5795 20.416 174.227167 19.7973333 174.551 18.9466667 174.551 17.864 174.551 16.762 174.169167 15.9403333 173.4055 15.399 172.641833 14.8576667 171.564 14.587 170.172 14.587L168.809 14.587 168.809 11.194 170.027 11.194C170.993667 11.194 171.796 10.9378333 172.434 10.4255 173.072 9.91316667 173.391 9.20266667 173.391 8.294 173.391 7.44333333 173.13 6.77633333 172.608 6.293 172.086 5.80966667 171.351333 5.568 170.404 5.568 169.456667 5.568 168.683333 5.83383333 168.084 6.3655 167.484667 6.89716667 167.107667 7.714 166.953 8.816L163.154 8.816C163.212 7.46266667 163.56 6.26883333 164.198 5.2345 164.836 4.20016667 165.696333 3.40266667 166.779 2.842 167.861667 2.28133333 169.079667 2.001 170.433 2.001 171.805667 2.001 173.018833 2.262 174.0725 2.784 175.126167 3.306 175.947833 4.02133333 176.5375 4.93 177.127167 5.83866667 177.422 6.86333333 177.422 8.004 177.422 9.106 177.1175 10.0726667 176.5085 10.904 175.8995 11.7353333 175.102 12.2573333 174.116 12.47 175.566 12.644 176.701833 13.2385 177.5235 14.2535 178.345167 15.2685 178.756 16.4913333 178.756 17.922 178.756 19.2753333 178.417667 20.4836667 177.741 21.547 177.064333 22.6103333 176.121833 23.4368333 174.9135 24.0265 173.705167 24.6161667 172.318 24.911 170.752 24.911Z"/></g><g fill="#FFF" fill-rule="nonzero" transform="translate(212.499 306.012)"><path d="M6.81424548e-14 25.179 6.81424548e-14-3.64697302e-16 9.801-3.64697302e-16C12.793-3.64697302e-16 14.949.66 16.269 1.98 17.347 3.036 17.886 4.477 17.886 6.303 17.886 7.777 17.5395 9.0255 16.8465 10.0485 16.1535 11.0715 15.191 11.715 13.959 11.979 15.609 12.177 16.885 12.7985 17.787 13.8435 18.689 14.8885 19.14 16.258 19.14 17.952 19.14 19.052 18.9475 20.042 18.5625 20.922 18.1775 21.802 17.666 22.528 17.028 23.1 16.126 23.892 15.059 24.4365 13.827 24.7335 12.595 25.0305 11.396 25.179 10.23 25.179L6.81424548e-14 25.179ZM9.603 10.626C10.923 10.626 11.935 10.3235 12.639 9.7185 13.343 9.1135 13.695 8.261 13.695 7.161 13.695 6.149 13.376 5.346 12.738 4.752 12.364 4.4 11.8635 4.147 11.2365 3.993 10.6095 3.839 9.834 3.762 8.91 3.762L4.191 3.762 4.191 10.626 9.603 10.626ZM9.735 21.417C10.615 21.417 11.407 21.351 12.111 21.219 12.815 21.087 13.42 20.79 13.926 20.328 14.63 19.69 14.982 18.788 14.982 17.622 14.982 16.126 14.5365 15.1635 13.6455 14.7345 12.7545 14.3055 11.638 14.091 10.296 14.091L4.191 14.091 4.191 21.417 9.735 21.417ZM29.073 25.542C26.301 25.542 24.42 24.53 23.43 22.506 23.144 21.912 22.9405 21.2465 22.8195 20.5095 22.6985 19.7725 22.638 18.777 22.638 17.523L22.638 6.732 26.532 6.732 26.532 17.556C26.532 19.404 26.851 20.68 27.489 21.384 28.017 21.978 28.853 22.275 29.997 22.275 31.251 22.275 32.241 21.879 32.967 21.087 33.429 20.581 33.759 19.9045 33.957 19.0575 34.155 18.2105 34.254 17.072 34.254 15.642L34.254 6.732 38.148 6.732 38.148 25.179 34.254 25.179 34.254 22.671C33.484 23.683 32.6975 24.4145 31.8945 24.8655 31.0915 25.3165 30.151 25.542 29.073 25.542ZM42.57 31.911 42.57 28.578 44.517 28.578C45.199 28.578 45.7105 28.4735 46.0515 28.2645 46.3925 28.0555 46.706 27.599 46.992 26.895L47.652 25.113 40.722 6.732 44.946 6.732 49.698 20.559 53.988 6.732 58.212 6.732 50.688 27.852C50.138 29.392 49.489 30.4535 48.741 31.0365 47.993 31.6195 46.926 31.911 45.54 31.911L42.57 31.911Z"/><polygon points="74.25 25.179 70.059 25.179 70.059 0 75.141 0 85.8 19.404 85.8 0 89.958 0 89.958 25.179 84.909 25.179 74.25 5.775"/><path d="M102.993,25.542 C101.189,25.542 99.583,25.135 98.175,24.321 C96.767,23.507 95.6725,22.3685 94.8915,20.9055 C94.1105,19.4425 93.72,17.765 93.72,15.873 C93.72,14.047 94.1105,12.4135 94.8915,10.9725 C95.6725,9.5315 96.767,8.4095 98.175,7.6065 C99.583,6.8035 101.189,6.402 102.993,6.402 C104.797,6.402 106.403,6.8035 107.811,7.6065 C109.219,8.4095 110.319,9.5315 111.111,10.9725 C111.903,12.4135 112.299,14.047 112.299,15.873 C112.299,17.743 111.9085,19.4095 111.1275,20.8725 C110.3465,22.3355 109.252,23.4795 107.844,24.3045 C106.436,25.1295 104.819,25.542 102.993,25.542 Z M102.993,22.143 C104.005,22.143 104.918,21.8735 105.732,21.3345 C106.546,20.7955 107.1785,20.053 107.6295,19.107 C108.0805,18.161 108.306,17.083 108.306,15.873 C108.306,14.729 108.0805,13.6895 107.6295,12.7545 C107.1785,11.8195 106.546,11.088 105.732,10.56 C104.918,10.032 104.005,9.768 102.993,9.768 C101.981,9.768 101.068,10.0265 100.254,10.5435 C99.44,11.0605 98.8075,11.7865 98.3565,12.7215 C97.9055,13.6565 97.68,14.707 97.68,15.873 C97.68,17.105 97.911,18.194 98.373,19.14 C98.835,20.086 99.4675,20.823 100.2705,21.351 C101.0735,21.879 101.981,22.143 102.993,22.143 Z"/></g><path fill="#000" fill-rule="nonzero" d="M46.452 47.716C46.452 52.9826667 44.6086667 57.196 40.922 60.356 37.2353333 63.516 32.153 65.1486667 25.675 65.254L25.675 72.285 22.357 72.285 22.357 65.175C16.5636667 64.701 11.5208333 62.884 7.2285 59.724 2.93616667 56.564.526666667 51.8503333 9.53337845e-16 45.583L12.087 45.583C13.4563333 51.113 16.8796667 54.2993333 22.357 55.142L22.357 40.448 21.725 40.29C17.459 39.342 14.0093333 38.3808333 11.376 37.4065 8.74266667 36.4321667 6.46483333 34.8653333 4.5425 32.706 2.62016667 30.5466667 1.659 27.5973333 1.659 23.858 1.659 18.486 3.54183333 14.3516667 7.3075 11.455 11.0731667 8.55833333 15.9316667 7.11 21.883 7.11L22.357 7.11 22.357 1.04343123e-13 25.675 1.04343123e-13 25.675 7.347C30.7836667 7.979 35.1023333 9.80916667 38.631 12.8375 42.1596667 15.8658333 44.2926667 19.987 45.03 25.201L32.943 25.201C32.4163333 23.2523333 31.5341667 21.6328333 30.2965 20.3425 29.0588333 19.0521667 27.5183333 18.1436667 25.675 17.617L25.675 30.257 25.754 30.257C30.02 31.205 33.5355 32.1925 36.3005 33.2195 39.0655 34.2465 41.4486667 35.9186667 43.45 38.236 45.4513333 40.5533333 46.452 43.7133333 46.452 47.716ZM13.351 22.831C13.351 24.569 14.1146667 25.9251667 15.642 26.8995 17.1693333 27.8738333 19.4076667 28.7296667 22.357 29.467L22.357 17.064 21.646 17.064C19.276 17.064 17.301 17.5643333 15.721 18.565 14.141 19.5656667 13.351 20.9876667 13.351 22.831ZM25.675 55.3C28.361 55.1946667 30.5335 54.5626667 32.1925 53.404 33.8515 52.2453333 34.681 50.5336667 34.681 48.269 34.681 46.373 33.9173333 44.9115 32.39 43.8845 30.8626667 42.8575 28.6243333 41.949 25.675 41.159L25.675 55.3ZM73.075 21.409C71.179 23.779 68.809 25.7803333 65.965 27.413 63.121 29.0456667 60.0926667 30.0463333 56.88 30.415L56.88 18.881C60.83 18.0383333 64.227 16.4978333 67.071 14.2595 69.915 12.0211667 72.048 9.26933333 73.47 6.004L85.794 6.004 85.794 66.281 73.075 66.281 73.075 21.409ZM124.583 67.466C117.315 67.466 111.732333 64.9643333 107.835 59.961 103.937667 54.9576667 101.989 46.9523333 101.989 35.945 101.989 25.0956667 103.911333 17.1956667 107.756 12.245 111.600667 7.29433333 117.130667 4.819 124.346 4.819 131.561333 4.819 137.117667 7.32066667 141.015 12.324 144.912333 17.3273333 146.861 25.3326667 146.861 36.34 146.861 47.242 144.951833 55.1551667 141.1335 60.0795 137.315167 65.0038333 131.798333 67.466 124.583 67.466ZM124.346 56.09C127.453333 56.09 129.849667 54.6548333 131.535 51.7845 133.220333 48.9141667 134.063 43.7133333 134.063 36.182 134.063 28.6506667 133.207167 23.4498333 131.4955 20.5795 129.783833 17.7091667 127.348 16.274 124.188 16.274 122.081333 16.274 120.3565 16.8401667 119.0135 17.9725 117.6705 19.1048333 116.630333 21.1193333 115.893 24.016 115.155667 26.9126667 114.787 30.9416667 114.787 36.103 114.787 41.317 115.168833 45.3855 115.9325 48.3085 116.696167 51.2315 117.762667 53.2591667 119.132 54.3915 120.501333 55.5238333 122.239333 56.09 124.346 56.09ZM175.143 67.466C167.875 67.466 162.292333 64.9643333 158.395 59.961 154.497667 54.9576667 152.549 46.9523333 152.549 35.945 152.549 25.0956667 154.471333 17.1956667 158.316 12.245 162.160667 7.29433333 167.690667 4.819 174.906 4.819 182.121333 4.819 187.677667 7.32066667 191.575 12.324 195.472333 17.3273333 197.421 25.3326667 197.421 36.34 197.421 47.242 195.511833 55.1551667 191.6935 60.0795 187.875167 65.0038333 182.358333 67.466 175.143 67.466ZM174.906 56.09C178.013333 56.09 180.409667 54.6548333 182.095 51.7845 183.780333 48.9141667 184.623 43.7133333 184.623 36.182 184.623 28.6506667 183.767167 23.4498333 182.0555 20.5795 180.343833 17.7091667 177.908 16.274 174.748 16.274 172.641333 16.274 170.9165 16.8401667 169.5735 17.9725 168.2305 19.1048333 167.190333 21.1193333 166.453 24.016 165.715667 26.9126667 165.347 30.9416667 165.347 36.103 165.347 41.317 165.728833 45.3855 166.4925 48.3085 167.256167 51.2315 168.322667 53.2591667 169.692 54.3915 171.061333 55.5238333 172.799333 56.09 174.906 56.09Z" transform="translate(175.13 104.91)"/></g><g transform="rotate(-5 2052.323 89.606)"><rect width="551" height="385" fill="#FFF" rx="40"/><rect width="52" height="48" x="460.156" y="162.191" fill="#F2F2F2" rx="8"/><rect width="52" height="48" x="40.156" y="162.191" fill="#F2F2F2" rx="8"/><polygon fill="gray" fill-rule="nonzero" points="16.25 27.95 11.7 27.95 11.7 16.25 0 16.25 0 11.7 11.7 11.7 11.7 0 16.25 0 16.25 11.7 27.95 11.7 27.95 16.25 16.25 16.25" transform="translate(472.156 170.341)"/><polygon fill="gray" fill-rule="nonzero" points="24.354 4.698 0 4.698 0 0 24.354 0" transform="translate(53.4 182.191)"/><rect width="499.816" height="67.737" x="26.921" y="292.455" fill="#249357" rx="8"/><rect width="499.816" height="73.895" x="26.921" y="282.191" fill="#32C777" rx="8"/><g fill-rule="nonzero" transform="translate(185.446 198.686)"><polygon fill="#444" points="10.933 24.505 6.757 24.505 6.757 6.119 0 6.119 0 2.378 17.661 2.378 17.661 6.119 10.933 6.119"/><path fill="#444" d="M23.374,24.824 C21.75,24.824 20.3096667,24.4663333 19.053,23.751 C17.7963333,23.0356667 16.8151667,22.0303333 16.1095,20.735 C15.4038333,19.4396667 15.051,17.951 15.051,16.269 C15.051,14.645 15.4038333,13.195 16.1095,11.919 C16.8151667,10.643 17.7963333,9.65216667 19.053,8.9465 C20.3096667,8.24083333 21.75,7.888 23.374,7.888 C24.998,7.888 26.4431667,8.24566667 27.7095,8.961 C28.9758333,9.67633333 29.9618333,10.6671667 30.6675,11.9335 C31.3731667,13.1998333 31.726,14.645 31.726,16.269 C31.726,17.951 31.378,19.4396667 30.682,20.735 C29.986,22.0303333 29.0048333,23.0356667 27.7385,23.751 C26.4721667,24.4663333 25.0173333,24.824 23.374,24.824 Z M23.374,21.46 C24.65,21.46 25.6843333,20.9766667 26.477,20.01 C27.2696667,19.0433333 27.666,17.7963333 27.666,16.269 C27.666,14.7996667 27.2696667,13.5961667 26.477,12.6585 C25.6843333,11.7208333 24.65,11.252 23.374,11.252 C22.5426667,11.252 21.7983333,11.4646667 21.141,11.89 C20.4836667,12.3153333 19.9713333,12.9098333 19.604,13.6735 C19.2366667,14.4371667 19.053,15.3023333 19.053,16.269 C19.053,17.8156667 19.4541667,19.0675 20.2565,20.0245 C21.0588333,20.9815 22.098,21.46 23.374,21.46 Z"/><polygon fill="#444" points="53.099 24.505 46.835 24.505 41.064 2.378 45.443 2.378 49.996 20.735 54.114 2.378 59.421 2.378 63.539 20.764 68.092 2.378 72.471 2.378 66.671 24.505 60.436 24.505 56.753 7.366"/><path fill="#444" d="M78.561 24.505 74.646 24.505 74.646 8.236 78.561 8.236 78.561 24.505ZM76.618 6.438C75.9413333 6.438 75.371 6.235 74.907 5.829 74.443 5.423 74.211 4.88166667 74.211 4.205 74.211 3.567 74.443 3.03533333 74.907 2.61 75.371 2.18466667 75.9413333 1.972 76.618 1.972 77.2753333 1.972 77.8408333 2.18466667 78.3145 2.61 78.7881667 3.03533333 79.025 3.567 79.025 4.205 79.025 4.86233333 78.793 5.39883333 78.329 5.8145 77.865 6.23016667 77.2946667 6.438 76.618 6.438ZM82.128 24.505 82.128 8.236 86.043 8.236 86.043 10.295C86.6616667 9.425 87.3286667 8.80633333 88.044 8.439 88.7593333 8.07166667 89.5713333 7.888 90.48 7.888 92.9933333 7.888 94.685 8.79666667 95.555 10.614 95.845 11.252 96.0286667 11.8996667 96.106 12.557 96.1833333 13.2143333 96.222 14.0746667 96.222 15.138L96.222 24.505 92.336 24.505 92.336 15.08C92.336 13.514 92.0653333 12.4313333 91.524 11.832 91.06 11.3486667 90.3736667 11.107 89.465 11.107 88.363 11.107 87.5413333 11.4356667 87 12.093 86.6713333 12.4796667 86.4296667 12.9968333 86.275 13.6445 86.1203333 14.2921667 86.043 15.1476667 86.043 16.211L86.043 24.505 82.128 24.505Z"/><path fill="#55AC69" d="M123.395 17.835C123.395 19.7876667 122.728 21.344 121.394 22.504 120.06 23.664 118.204 24.2633333 115.826 24.302L115.826 26.883 114.608 26.883 114.608 24.273C112.481333 24.1183333 110.644667 23.4561667 109.098 22.2865 107.551333 21.1168333 106.662 19.401 106.43 17.139L110.432 17.139C110.702667 18.3183333 111.210167 19.2028333 111.9545 19.7925 112.698833 20.3821667 113.583333 20.7543333 114.608 20.909L114.608 14.79 114.405 14.732C112.839 14.384 111.572667 14.0311667 110.606 13.6735 109.639333 13.3158333 108.812833 12.7455 108.1265 11.9625 107.440167 11.1795 107.097 10.1016667 107.097 8.729 107.097 6.79566667 107.783333 5.2925 109.156 4.2195 110.528667 3.1465 112.307333 2.61 114.492 2.61L114.608 2.61 114.608 3.20435934e-13 115.826 3.20435934e-13 115.826 2.697C117.662667 2.90966667 119.223833 3.567 120.5095 4.669 121.795167 5.771 122.573333 7.279 122.844 9.193L118.9 9.193C118.687333 8.36166667 118.310333 7.685 117.769 7.163 117.227667 6.641 116.58 6.293 115.826 6.119L115.826 11.426C117.392 11.774 118.6825 12.1365 119.6975 12.5135 120.7125 12.8905 121.5825 13.5043333 122.3075 14.355 123.0325 15.2056667 123.395 16.3656667 123.395 17.835ZM110.983 8.41C110.983 9.14466667 111.2875 9.71016667 111.8965 10.1065 112.5055 10.5028333 113.409333 10.8556667 114.608 11.165L114.608 5.945 114.405 5.945C113.380333 5.945 112.553833 6.1625 111.9255 6.5975 111.297167 7.0325 110.983 7.63666667 110.983 8.41ZM115.826 20.967C116.947333 20.9283333 117.8415 20.6673333 118.5085 20.184 119.1755 19.7006667 119.509 18.9853333 119.509 18.038 119.509 17.2066667 119.19 16.5735 118.552 16.1385 117.914 15.7035 117.005333 15.341 115.826 15.051L115.826 20.967ZM138.997 24.505 134.821 24.505 134.821 19.517 125.251 19.517 125.251 15.515 134.908 2.378 138.997 2.378 138.997 15.776 141.81 15.776 141.81 19.517 138.997 19.517 138.997 24.505ZM134.821 7.714 129.137 15.776 134.821 15.776 134.821 7.714ZM152.134 24.911C146.720667 24.911 144.014 21.0636667 144.014 13.369 144.014 9.44433333 144.71 6.56366667 146.102 4.727 147.494 2.89033333 149.475667 1.972 152.047 1.972 157.441 1.972 160.138 5.81933333 160.138 13.514 160.138 21.112 157.47 24.911 152.134 24.911ZM152.047 21.17C153.303667 21.17 154.270333 20.59 154.947 19.43 155.623667 18.27 155.962 16.2786667 155.962 13.456 155.962 10.6333333 155.614 8.642 154.918 7.482 154.222 6.322 153.245667 5.742 151.989 5.742 150.732333 5.742 149.785 6.31716667 149.147 7.4675 148.509 8.61783333 148.19 10.6043333 148.19 13.427 148.19 16.269 148.518667 18.27 149.176 19.43 149.833333 20.59 150.790333 21.17 152.047 21.17ZM170.694 24.911C165.280667 24.911 162.574 21.0636667 162.574 13.369 162.574 9.44433333 163.27 6.56366667 164.662 4.727 166.054 2.89033333 168.035667 1.972 170.607 1.972 176.001 1.972 178.698 5.81933333 178.698 13.514 178.698 21.112 176.03 24.911 170.694 24.911ZM170.607 21.17C171.863667 21.17 172.830333 20.59 173.507 19.43 174.183667 18.27 174.522 16.2786667 174.522 13.456 174.522 10.6333333 174.174 8.642 173.478 7.482 172.782 6.322 171.805667 5.742 170.549 5.742 169.292333 5.742 168.345 6.31716667 167.707 7.4675 167.069 8.61783333 166.75 10.6043333 166.75 13.427 166.75 16.269 167.078667 18.27 167.736 19.43 168.393333 20.59 169.350333 21.17 170.607 21.17Z"/></g><g fill="#FFF" fill-rule="nonzero" transform="translate(212.499 306.012)"><path d="M-2.87772718e-14 25.179-2.87772718e-14 1.1044791e-13 9.801 1.1044791e-13C12.793 1.1044791e-13 14.949.66 16.269 1.98 17.347 3.036 17.886 4.477 17.886 6.303 17.886 7.777 17.5395 9.0255 16.8465 10.0485 16.1535 11.0715 15.191 11.715 13.959 11.979 15.609 12.177 16.885 12.7985 17.787 13.8435 18.689 14.8885 19.14 16.258 19.14 17.952 19.14 19.052 18.9475 20.042 18.5625 20.922 18.1775 21.802 17.666 22.528 17.028 23.1 16.126 23.892 15.059 24.4365 13.827 24.7335 12.595 25.0305 11.396 25.179 10.23 25.179L-2.87772718e-14 25.179ZM9.603 10.626C10.923 10.626 11.935 10.3235 12.639 9.7185 13.343 9.1135 13.695 8.261 13.695 7.161 13.695 6.149 13.376 5.346 12.738 4.752 12.364 4.4 11.8635 4.147 11.2365 3.993 10.6095 3.839 9.834 3.762 8.91 3.762L4.191 3.762 4.191 10.626 9.603 10.626ZM9.735 21.417C10.615 21.417 11.407 21.351 12.111 21.219 12.815 21.087 13.42 20.79 13.926 20.328 14.63 19.69 14.982 18.788 14.982 17.622 14.982 16.126 14.5365 15.1635 13.6455 14.7345 12.7545 14.3055 11.638 14.091 10.296 14.091L4.191 14.091 4.191 21.417 9.735 21.417ZM29.073 25.542C26.301 25.542 24.42 24.53 23.43 22.506 23.144 21.912 22.9405 21.2465 22.8195 20.5095 22.6985 19.7725 22.638 18.777 22.638 17.523L22.638 6.732 26.532 6.732 26.532 17.556C26.532 19.404 26.851 20.68 27.489 21.384 28.017 21.978 28.853 22.275 29.997 22.275 31.251 22.275 32.241 21.879 32.967 21.087 33.429 20.581 33.759 19.9045 33.957 19.0575 34.155 18.2105 34.254 17.072 34.254 15.642L34.254 6.732 38.148 6.732 38.148 25.179 34.254 25.179 34.254 22.671C33.484 23.683 32.6975 24.4145 31.8945 24.8655 31.0915 25.3165 30.151 25.542 29.073 25.542ZM42.57 31.911 42.57 28.578 44.517 28.578C45.199 28.578 45.7105 28.4735 46.0515 28.2645 46.3925 28.0555 46.706 27.599 46.992 26.895L47.652 25.113 40.722 6.732 44.946 6.732 49.698 20.559 53.988 6.732 58.212 6.732 50.688 27.852C50.138 29.392 49.489 30.4535 48.741 31.0365 47.993 31.6195 46.926 31.911 45.54 31.911L42.57 31.911Z"/><polygon points="81.345 25.179 76.956 25.179 76.956 15.411 67.683 0 72.567 0 79.101 11.319 85.701 0 90.552 0 81.345 15.411"/><path d="M97.119 25.542C95.315 25.542 93.7145 25.1295 92.3175 24.3045 90.9205 23.4795 89.837 22.3465 89.067 20.9055 88.297 19.4645 87.912 17.842 87.912 16.038 87.912 14.366 88.2585 12.793 88.9515 11.319 89.6445 9.845 90.6785 8.657 92.0535 7.755 93.4285 6.853 95.084 6.402 97.02 6.402 98.648 6.402 100.1605 6.7485 101.5575 7.4415 102.9545 8.1345 104.0765 9.185 104.9235 10.593 105.7705 12.001 106.194 13.728 106.194 15.774L106.194 16.764 91.872 16.764C92.004 17.622 92.213 18.304 92.499 18.81 92.939 19.844 93.5715 20.658 94.3965 21.252 95.2215 21.846 96.162 22.143 97.218 22.143 98.34 22.143 99.3025 21.8515 100.1055 21.2685 100.9085 20.6855 101.486 19.954 101.838 19.074L105.864 19.074C105.27 20.988 104.236 22.5445 102.762 23.7435 101.288 24.9425 99.407 25.542 97.119 25.542ZM102.135 13.695C102.047 13.013 101.849 12.43 101.541 11.946 101.101 11.176 100.496 10.5875 99.726 10.1805 98.956 9.7735 98.098 9.57 97.152 9.57 96.184 9.57 95.326 9.7735 94.578 10.1805 93.83 10.5875 93.225 11.176 92.763 11.946 92.477 12.386 92.257 12.969 92.103 13.695L102.135 13.695ZM117.447 25.542C115.159 25.542 113.2175 24.992 111.6225 23.892 110.0275 22.792 109.076 21.186 108.768 19.074L112.695 19.074C112.959 20.13 113.498 20.944 114.312 21.516 115.126 22.088 116.171 22.374 117.447 22.374 118.525 22.374 119.3885 22.1705 120.0375 21.7635 120.6865 21.3565 121.011 20.779 121.011 20.031 121.011 19.437 120.8075 18.964 120.4005 18.612 119.9935 18.26 119.4875 17.9905 118.8825 17.8035 118.2775 17.6165 117.447 17.413 116.391 17.193 114.939 16.907 113.7565 16.61 112.8435 16.302 111.9305 15.994 111.1495 15.4825 110.5005 14.7675 109.8515 14.0525 109.527 13.068 109.527 11.814 109.527 10.054 110.187 8.712 111.507 7.788 112.827 6.864 114.499 6.402 116.523 6.402 118.635 6.402 120.395 6.941 121.803 8.019 123.211 9.097 124.08 10.593 124.41 12.507L120.747 12.507C120.483 11.517 119.977 10.7745 119.229 10.2795 118.481 9.7845 117.579 9.537 116.523 9.537 115.533 9.537 114.752 9.724 114.18 10.098 113.608 10.472 113.322 10.978 113.322 11.616 113.322 12.144 113.5145 12.5675 113.8995 12.8865 114.2845 13.2055 114.7685 13.4475 115.3515 13.6125 115.9345 13.7775 116.743 13.959 117.777 14.157 119.251 14.421 120.461 14.718 121.407 15.048 122.353 15.378 123.167 15.9115 123.849 16.6485 124.531 17.3855 124.872 18.403 124.872 19.701 124.872 21.483 124.212 22.902 122.892 23.958 121.572 25.014 119.757 25.542 117.447 25.542Z"/></g><path fill="#000" fill-rule="nonzero" d="M46.452 47.716C46.452 52.9826667 44.6086667 57.196 40.922 60.356 37.2353333 63.516 32.153 65.1486667 25.675 65.254L25.675 72.285 22.357 72.285 22.357 65.175C16.5636667 64.701 11.5208333 62.884 7.2285 59.724 2.93616667 56.564.526666667 51.8503333-8.5569229e-15 45.583L12.087 45.583C13.4563333 51.113 16.8796667 54.2993333 22.357 55.142L22.357 40.448 21.725 40.29C17.459 39.342 14.0093333 38.3808333 11.376 37.4065 8.74266667 36.4321667 6.46483333 34.8653333 4.5425 32.706 2.62016667 30.5466667 1.659 27.5973333 1.659 23.858 1.659 18.486 3.54183333 14.3516667 7.3075 11.455 11.0731667 8.55833333 15.9316667 7.11 21.883 7.11L22.357 7.11 22.357-1.62408857e-13 25.675-1.62408857e-13 25.675 7.347C30.7836667 7.979 35.1023333 9.80916667 38.631 12.8375 42.1596667 15.8658333 44.2926667 19.987 45.03 25.201L32.943 25.201C32.4163333 23.2523333 31.5341667 21.6328333 30.2965 20.3425 29.0588333 19.0521667 27.5183333 18.1436667 25.675 17.617L25.675 30.257 25.754 30.257C30.02 31.205 33.5355 32.1925 36.3005 33.2195 39.0655 34.2465 41.4486667 35.9186667 43.45 38.236 45.4513333 40.5533333 46.452 43.7133333 46.452 47.716ZM13.351 22.831C13.351 24.569 14.1146667 25.9251667 15.642 26.8995 17.1693333 27.8738333 19.4076667 28.7296667 22.357 29.467L22.357 17.064 21.646 17.064C19.276 17.064 17.301 17.5643333 15.721 18.565 14.141 19.5656667 13.351 20.9876667 13.351 22.831ZM25.675 55.3C28.361 55.1946667 30.5335 54.5626667 32.1925 53.404 33.8515 52.2453333 34.681 50.5336667 34.681 48.269 34.681 46.373 33.9173333 44.9115 32.39 43.8845 30.8626667 42.8575 28.6243333 41.949 25.675 41.159L25.675 55.3ZM73.075 21.409C71.179 23.779 68.809 25.7803333 65.965 27.413 63.121 29.0456667 60.0926667 30.0463333 56.88 30.415L56.88 18.881C60.83 18.0383333 64.227 16.4978333 67.071 14.2595 69.915 12.0211667 72.048 9.26933333 73.47 6.004L85.794 6.004 85.794 66.281 73.075 66.281 73.075 21.409ZM124.583 67.466C117.315 67.466 111.732333 64.9643333 107.835 59.961 103.937667 54.9576667 101.989 46.9523333 101.989 35.945 101.989 25.0956667 103.911333 17.1956667 107.756 12.245 111.600667 7.29433333 117.130667 4.819 124.346 4.819 131.561333 4.819 137.117667 7.32066667 141.015 12.324 144.912333 17.3273333 146.861 25.3326667 146.861 36.34 146.861 47.242 144.951833 55.1551667 141.1335 60.0795 137.315167 65.0038333 131.798333 67.466 124.583 67.466ZM124.346 56.09C127.453333 56.09 129.849667 54.6548333 131.535 51.7845 133.220333 48.9141667 134.063 43.7133333 134.063 36.182 134.063 28.6506667 133.207167 23.4498333 131.4955 20.5795 129.783833 17.7091667 127.348 16.274 124.188 16.274 122.081333 16.274 120.3565 16.8401667 119.0135 17.9725 117.6705 19.1048333 116.630333 21.1193333 115.893 24.016 115.155667 26.9126667 114.787 30.9416667 114.787 36.103 114.787 41.317 115.168833 45.3855 115.9325 48.3085 116.696167 51.2315 117.762667 53.2591667 119.132 54.3915 120.501333 55.5238333 122.239333 56.09 124.346 56.09ZM175.143 67.466C167.875 67.466 162.292333 64.9643333 158.395 59.961 154.497667 54.9576667 152.549 46.9523333 152.549 35.945 152.549 25.0956667 154.471333 17.1956667 158.316 12.245 162.160667 7.29433333 167.690667 4.819 174.906 4.819 182.121333 4.819 187.677667 7.32066667 191.575 12.324 195.472333 17.3273333 197.421 25.3326667 197.421 36.34 197.421 47.242 195.511833 55.1551667 191.6935 60.0795 187.875167 65.0038333 182.358333 67.466 175.143 67.466ZM174.906 56.09C178.013333 56.09 180.409667 54.6548333 182.095 51.7845 183.780333 48.9141667 184.623 43.7133333 184.623 36.182 184.623 28.6506667 183.767167 23.4498333 182.0555 20.5795 180.343833 17.7091667 177.908 16.274 174.748 16.274 172.641333 16.274 170.9165 16.8401667 169.5735 17.9725 168.2305 19.1048333 167.190333 21.1193333 166.453 24.016 165.715667 26.9126667 165.347 30.9416667 165.347 36.103 165.347 41.317 165.728833 45.3855 166.4925 48.3085 167.256167 51.2315 168.322667 53.2591667 169.692 54.3915 171.061333 55.5238333 172.799333 56.09 174.906 56.09Z" transform="translate(175.13 104.91)"/></g></g></svg>